SplineFontDB: 1.0
FontName: MnSymbolS9
FullName: MnSymbolS9
FamilyName: MnSymbolS9
Weight: Regular
Copyright: Generated from MetaFont bitmap by mftrace 1.1.17, http://www.xs4all.nl/~hanwen/mftrace/ 
Version: 001.001
ItalicAngle: 0
UnderlinePosition: -100
UnderlineWidth: 50
Ascent: 800
Descent: 200
NeedsXUIDChange: 1
UniqueID: 4257948
OS2TypoAscent: 0
OS2TypoAOffset: 1
OS2TypoDescent: 0
OS2TypoDOffset: 1
OS2TypoLinegap: 0
OS2WinAscent: 0
OS2WinAOffset: 1
OS2WinDescent: 0
OS2WinDOffset: 1
HheadAscent: 0
HheadAOffset: 1
HheadDescent: 0
HheadDOffset: 1
OS2Vendor: 'PfEd'
Encoding: Custom
UnicodeInterp: none
NameList: Adobe Glyph List
DisplaySize: -24
AntiAlias: 1
FitToEm: 1
WinInfo: 54 18 9
BeginPrivate: 3
lenIV 1 4
BlueValues 2 []
ForceBold 5 false
EndPrivate
BeginChars: 256 28
StartChar: A
Encoding: 65 65 2
Width: 818
Flags: HMW
Back
102.002 60.1953 m 0
 108.397 55.3096 115.694 51.3398 123.673 48.4365 c 0
 131.149 45.7148 139.224 43.9268 147.707 43.1494 c 0
 192.171 39.0771 263.46 141.723 320.771 224.891 c 0
 418.939 367.346 503.741 514.42 574.365 663.79 c 1
 615.762 663.79 l 1
 614.017 659.819 l 2
 534.716 487.446 439.408 320.734 330.063 162.06 c 0
 280.817 90.5957 183.496 -55.8096 117.73 -49.7861 c 0
 108.026 -48.8975 98.7812 -46.8564 90.1338 -43.709 c 0
 80.9053 -40.3496 72.3574 -35.7334 64.665 -29.8564 c 0
 50.6074 -19.1172 31.292 0.319336 27.3506 31.4873 c 0
 25.1016 49.2793 33.9062 78.7344 47.0049 97.2354 c 0
 60.1035 115.735 72.5605 116.311 74.8105 98.5186 c 0
 76.457 85.498 88.915 70.1934 102.002 60.1953 c 0
695.264 215.034 m 0
 701.041 158.455 712.121 103.71 728.363 51.4209 c 0
 729.128 48.96 730.127 46.6855 731.325 44.6104 c 0
 738.172 32.751 751.136 27.9297 760.869 29.3496 c 0
 762.053 29.5225 759.48 29.001 756.014 27.252 c 1
 772.834 35.7373 l 2
 796.797 47.8271 817.49 48.9404 819.024 38.2227 c 0
 820.559 27.5049 802.354 8.99414 778.392 -3.0957 c 2
 761.573 -11.5801 l 2
 742.122 -21.3945 724.732 -26.3311 711.612 -28.2451 c 0
 692.042 -31.1006 661.011 -29.9688 646.295 -4.48047 c 0
 644.575 -1.50293 643.16 1.72559 642.081 5.2002 c 0
 625.538 58.458 614.247 114.227 608.357 171.915 c 0
 591.585 336.18 584.065 503.334 585.827 672.714 c 0
 585.947 684.238 605.532 702.781 629.544 714.104 c 0
 653.557 725.427 672.947 725.263 672.827 713.738 c 0
 671.072 545.093 678.56 378.633 695.264 215.034 c 0
338.807 164.476 m 2
 321.919 164.476 321.813 177.468 338.571 193.476 c 0
 355.33 209.483 382.636 222.476 399.523 222.476 c 2
 682.169 222.475 l 2
 699.057 222.475 699.162 209.483 682.404 193.475 c 0
 665.646 177.467 638.34 164.476 621.452 164.476 c 2
 338.807 164.476 l 2
EndSplineSet
Fore
603 222 m 1
 592 346 586 472 586 599 c 1
 539 502 462 360 363 211 c 1
 376 218 390 222 400 222 c 2
 603 222 l 1
332 165 m 1
 283 94 189 -50 122 -50 c 0
 77 -50 27 -9 27 37 c 0
 27 69 50 111 65 111 c 0
 80 111 65 89 102 60 c 0
 118 48 139 43 150 43 c 0
 195 43 265 143 321 225 c 0
 419 367 504 514 574 664 c 1
 586 664 l 1
 586 673 l 2
 586 693 635 722 660 722 c 0
 668 722 673 720 673 714 c 2
 673 666 l 2
 673 334 706 89 731 45 c 0
 737 34 748 29 757 29 c 2
 760 29 l 1
 773 36 l 2
 786 42 798 46 806 46 c 0
 812 46 819 44 819 37 c 0
 819 26 801 9 778 -3 c 2
 762 -12 l 2
 732 -26 710 -29 697 -29 c 0
 671 -29 649 -19 642 5 c 0
 626 56 615 109 609 164 c 1
 339 164 l 2
 336 164 334 165 332 165 c 1
EndSplineSet
EndChar
StartChar: B
Encoding: 66 66 3
Width: 671
Flags: HMW
Back
110.008 190.444 m 0
 146.802 337.617 175.077 484.701 194.687 630.951 c 1
 170.772 618.886 l 2
 146.81 606.796 126.115 605.682 124.58 616.399 c 0
 123.045 627.116 141.248 645.627 165.211 657.717 c 2
 238.604 694.745 l 2
 251.732 701.369 262.854 704.636 272.153 704.599 c 0
 281.453 704.562 285.644 701.233 284.793 694.561 c 0
 264.985 539.047 235.411 382.484 196.222 225.727 c 0
 178.947 156.63 151.927 87.6406 115.601 20.4912 c 0
 107.72 5.92285 82.9141 -11.5703 60.2324 -18.5557 c 0
 37.5508 -25.541 25.5381 -19.3877 33.4189 -4.81934 c 0
 67.4912 58.1621 93.4004 124.015 110.008 190.444 c 0
347.811 37.1045 m 0
 407.611 37.1045 456.561 53.543 483.194 68.9189 c 0
 506.515 82.3838 536.524 109.022 548.207 155.752 c 0
 561.458 208.759 548.445 246.755 535.344 269.446 c 0
 497.389 335.183 411.106 361.766 324.483 347.137 c 0
 305.372 343.909 298.913 351.274 308.307 365.584 c 0
 317.7 379.894 338.403 394.229 360.161 401.487 c 0
 438.371 427.579 489.91 446.383 527.697 468.199 c 0
 548.862 480.419 578.113 500.558 587.438 537.855 c 0
 593.376 561.607 590.307 583.592 580.079 601.307 c 0
 560.523 635.176 517.779 650.074 477.219 646.238 c 0
 443.207 643.021 422.27 633.066 410.541 626.295 c 0
 343.702 587.706 256.513 466.893 196.222 225.727 c 0
 192.998 212.835 171.07 194.469 147.276 184.73 c 0
 123.481 174.993 106.785 177.553 110.008 190.444 c 0
 189.183 507.143 309.304 610.361 392.131 658.181 c 0
 441.899 686.914 489.143 700.431 531.33 704.421 c 0
 597.293 710.658 644.651 685.831 665.109 650.398 c 0
 674 634.999 682.647 609.122 673.651 573.138 c 0
 660.042 518.701 608.069 472.087 546.107 436.313 c 0
 526.5 424.994 505.363 414.577 484.083 405.102 c 1
 547.816 393.711 595.562 361.51 620.374 318.538 c 0
 640.34 283.957 646.888 240.906 634.42 191.034 c 0
 620.237 134.305 575.452 79.6689 501.604 37.0342 c 0
 425.915 -6.66406 346.826 -21.4326 286.529 -21.4326 c 0
 265.21 -21.4326 187.37 -19.3643 135.307 42.7812 c 0
 128.694 50.6729 142.063 68.5195 165.147 82.6172 c 0
 188.231 96.7148 212.333 101.752 218.944 93.8604 c 0
 256.684 48.8125 310.153 37.1045 347.811 37.1045 c 0
EndSplineSet
Fore
261 537 m 1
 372 685 499 705 551 705 c 0
 624 705 677 664 677 603 c 0
 677 524 598 456 484 405 c 1
 561 391 641 339 641 240 c 0
 641 79 442 -21 287 -21 c 0
 185 -21 134 40 134 48 c 0
 134 68 183 98 208 98 c 0
 213 98 217 96 219 94 c 0
 257 49 310 37 348 37 c 0
 434 37 554 69 554 199 c 0
 554 290 475 351 371 351 c 0
 338 351 327 346 316 346 c 0
 308 346 304 349 304 355 c 0
 304 364 321 389 360 401 c 0
 527 457 590 488 590 561 c 0
 590 613 546 647 490 647 c 0
 458 647 431 638 411 626 c 0
 344 588 257 467 196 226 c 0
 179 157 152 88 116 20 c 0
 106 3 68 -21 44 -21 c 0
 36 -21 31 -18 31 -13 c 0
 31 -2 78 64 110 189 c 1
 111 216 156 345 195 631 c 1
 171 619 l 2
 158 612 146 609 137 609 c 0
 131 609 124 611 124 618 c 0
 124 629 142 646 165 658 c 2
 239 695 l 2
 252 701 263 705 272 705 c 0
 281 705 286 701 285 695 c 0
 278 642 270 589 261 537 c 1
EndSplineSet
EndChar
StartChar: C
Encoding: 67 67 4
Width: 540
Flags: HMW
Back
451.803 563.202 m 0
 458.445 580.98 462.471 606.119 451.859 624.497 c 0
 447.812 631.505 441.842 636.743 434.619 639.695 c 0
 429.277 641.878 417.531 646.061 401.697 646.061 c 0
 345.719 646.061 305.289 631.931 278.438 616.428 c 0
 223.428 584.668 151.165 503.355 115.132 359.224 c 0
 92.4316 268.423 96.7559 177.834 132.573 115.799 c 0
 145.131 94.0508 176.954 48.2871 246.855 36.7891 c 0
 278.836 31.5283 321.115 35.2119 357.789 56.3848 c 0
 374.314 65.9268 402.66 86.5283 427.766 126.007 c 0
 437.338 141.061 462.98 158.039 485.002 163.903 c 0
 507.023 169.768 517.125 162.31 507.553 147.255 c 0
 464.143 78.9893 402.414 39.6357 376.199 24.5 c 0
 302.842 -17.8525 232.62 -30.2344 177.192 -21.1172 c 0
 98.6182 -8.19336 63.3662 39.3018 47.543 66.707 c 0
 9.10547 133.28 4.8457 227.651 28.9189 323.941 c 0
 79.1719 524.956 197.269 612.08 260.027 648.313 c 0
 328.816 688.028 397.783 704.599 462.979 704.599 c 0
 481.518 704.599 497.344 701.37 511.135 695.733 c 0
 523.246 690.784 531.447 683.017 536.889 673.589 c 0
 550.549 649.931 545.379 617.578 536.828 594.693 c 0
 523.604 559.296 506.793 524.197 486.438 489.806 c 0
 477.656 474.97 452.393 457.736 430.043 451.338 c 0
 407.693 444.939 396.682 451.787 405.461 466.622 c 0
 423.859 497.707 439.445 530.127 451.803 563.202 c 0
EndSplineSet
Fore
402 458 m 0
 402 466 458 551 458 597 c 0
 458 636 429 646 402 646 c 0
 346 646 305 632 278 616 c 0
 181 560 101 395 101 251 c 0
 101 117 170 35 274 35 c 0
 311 35 376 45 428 126 c 0
 439 144 475 166 498 166 c 0
 507 166 511 163 511 157 c 0
 511 133 379 -24 213 -24 c 0
 81 -24 14 77 14 209 c 0
 14 246 19 285 29 324 c 0
 95 582 289 705 463 705 c 0
 503 705 545 691 545 639 c 0
 545 592 497 508 486 490 c 0
 476 472 439 449 415 449 c 0
 407 449 402 452 402 458 c 0
EndSplineSet
EndChar
StartChar: D
Encoding: 68 68 5
Width: 792
Flags: HMW
Back
233.956 323.941 m 0
 259.918 427.785 276.373 531.517 283.08 633.796 c 0
 283.855 645.625 303.964 664.157 327.963 675.161 c 0
 351.963 686.164 370.811 685.494 370.035 673.664 c 0
 363.238 570.015 346.56 464.782 320.17 359.224 c 0
 293.78 253.665 257.792 148.224 212.571 44.1299 c 0
 206.501 30.1572 182.72 12.2344 159.487 4.12305 c 0
 136.255 -3.98926 122.326 0.767578 128.396 14.7402 c 0
 172.637 116.576 207.995 220.099 233.956 323.941 c 0
271.1 58.7041 m 2
 369.077 58.7041 460.333 86.3916 525.78 124.178 c 0
 652.346 197.249 681.409 303.43 688.097 330.181 c 0
 706.424 403.487 699.797 462.762 673.436 508.42 c 0
 628.461 586.313 525.829 624.461 392.141 624.461 c 2
 295.917 624.461 l 2
 278.873 624.461 278.767 637.573 295.68 653.729 c 0
 312.594 669.886 340.153 682.998 357.198 682.999 c 2
 453.422 682.999 l 2
 599.427 682.999 709.92 641.59 758.466 557.511 c 0
 786.913 508.241 794.015 444.279 774.311 365.463 c 0
 746.647 254.813 660.543 159.467 544.19 92.292 c 0
 434.074 28.7178 313.849 0.166016 209.818 0.166016 c 2
 96.0967 0.166992 l 2
 79.0527 0.166992 78.9463 13.2793 95.8604 29.4355 c 0
 112.773 45.5918 140.334 58.7041 157.378 58.7041 c 2
 271.1 58.7041 l 2
150.755 594.653 m 0
 143.045 590.202 136.699 585.182 130.609 578.515 c 0
 121.819 568.89 111.945 553.852 106.612 532.518 c 0
 103.389 519.626 81.4609 501.26 57.667 491.521 c 0
 33.8721 481.784 17.1758 484.344 20.3984 497.236 c 0
 26.8086 522.876 39.4512 546.86 61.6484 571.164 c 0
 79.707 590.937 105.158 610.844 132.345 626.539 c 0
 142.681 632.507 139.272 630.445 141.016 631.39 c 0
 219.821 674.102 302.931 682.999 357.198 682.999 c 0
 374.243 682.998 374.349 669.886 357.436 653.729 c 0
 340.521 637.573 312.961 624.461 295.917 624.461 c 0
 230.473 624.461 178.953 609.98 153.288 596.069 c 0
 153.251 596.05 192.102 618.524 150.755 594.653 c 0
EndSplineSet
Fore
785 449 m 0
 785 180 466 0 210 0 c 2
 96 0 l 2
 88 0 83 3 83 9 c 0
 83 28 125 52 146 57 c 1
 215 226 268 417 282 624 c 1
 223 622 175 608 151 595 c 0
 127 581 113 557 107 533 c 0
 102 514 60 486 33 486 c 0
 25 486 20 489 20 494 c 0
 20 505 35 542 62 571 c 0
 86 598 180 683 357 683 c 2
 453 683 l 2
 621 683 785 626 785 449 c 0
366 624 m 1
 344 395 278 198 219 59 c 1
 271 59 l 2
 499 59 698 198 698 408 c 0
 698 571 547 624 392 624 c 2
 366 624 l 1
EndSplineSet
EndChar
StartChar: E
Encoding: 69 69 6
Width: 540
Flags: HMW
Back
479.114 567.738 m 0
 485.612 579.387 490.697 598.638 480.343 616.571 c 0
 475.801 624.439 468.593 630.54 460.174 633.809 c 0
 439.01 642.028 415.854 646.061 392.815 646.061 c 0
 345.208 646.061 310.579 632.002 293.638 622.221 c 0
 286.032 617.829 282.529 615.007 280.101 613.109 c 0
 264.483 600.91 243.908 577.661 235.287 543.178 c 0
 228.492 515.998 231.908 492.206 243.321 472.439 c 0
 271.094 424.338 340.483 405.012 404.256 405.012 c 0
 421.301 405.012 421.407 391.899 404.493 375.743 c 0
 387.58 359.587 360.02 346.475 342.976 346.475 c 0
 260.067 346.474 187.28 373.139 158.291 423.349 c 0
 145.097 446.2 140.666 474.263 149.074 507.896 c 0
 157.308 540.83 179.535 583.961 233.038 625.752 c 0
 246.05 635.916 260.41 645.552 275.229 654.106 c 0
 339.03 690.942 403.766 704.599 454.097 704.599 c 0
 484.567 704.599 511.939 699.464 536.279 690.012 c 0
 549.826 684.75 559.288 676.201 565.373 665.663 c 0
 580.623 639.251 570.563 609.653 560.915 592.356 c 0
 558.412 587.869 555.758 583.389 552.949 578.919 c 0
 543.515 563.901 517.937 546.877 495.855 540.918 c 0
 473.774 534.959 463.512 542.312 472.946 557.329 c 0
 475.082 560.729 477.142 564.202 479.114 567.738 c 0
226.393 316.038 m 0
 169.187 283.011 132.012 226.681 118.501 172.638 c 0
 110.084 138.967 118.569 114.928 126.895 100.509 c 0
 151.066 58.6436 207.248 37.1045 266.992 37.1045 c 0
 293.219 37.1045 326.128 42.751 357.326 60.7637 c 0
 378.434 72.9502 404.395 94.2539 427.264 127.3 c 0
 437.86 142.613 463.948 159.222 485.496 164.373 c 0
 507.043 169.523 515.93 161.275 505.333 145.962 c 0
 475.57 102.954 431.923 61.3164 375.736 28.8779 c 0
 337.796 6.97363 274.77 -21.4326 205.711 -21.4326 c 0
 133.366 -21.4336 69.0781 4.2832 41.8643 51.417 c 0
 28.3945 74.7461 23.7959 103.386 32.2881 137.355 c 0
 53.1621 220.852 118.802 296.436 207.982 347.924 c 0
 275.504 386.906 344.667 405.012 404.256 405.012 c 0
 421.301 405.012 421.407 391.899 404.493 375.743 c 0
 387.58 359.587 360.02 346.475 342.976 346.475 c 0
 295.139 346.474 254.852 332.469 226.393 316.038 c 0
EndSplineSet
Fore
28 104 m 0
 28 156 73 283 237 363 c 1
 180 385 145 424 145 475 c 0
 145 593 307 705 454 705 c 0
 503 705 573 693 573 636 c 0
 573 584 521 539 482 539 c 0
 474 539 469 542 469 548 c 0
 469 559 486 569 486 594 c 0
 486 612 476 628 460 634 c 0
 439 642 416 646 393 646 c 0
 272 646 232 568 232 516 c 0
 232 449 304 405 404 405 c 0
 413 405 417 402 417 396 c 0
 417 376 368 346 343 346 c 0
 187 346 115 210 115 146 c 0
 115 81 181 37 267 37 c 0
 301 37 371 46 427 127 c 0
 440 145 475 166 497 166 c 0
 505 166 510 163 510 157 c 0
 510 134 373 -21 206 -21 c 0
 102 -21 28 29 28 104 c 0
EndSplineSet
EndChar
StartChar: F
Encoding: 70 70 7
Width: 735
Flags: HMW
Back
110.993 75.7939 m 0
 131.328 40.5752 168.129 25.2197 203.605 25.6436 c 0
 206.265 25.6758 207.517 25.9785 207.715 26.0195 c 0
 208.231 26.127 205.109 25.1064 202.679 23.7031 c 1
 202.689 23.71 201.139 22.7324 201.146 22.7373 c 0
 204.678 25.334 213.684 34.5986 221.962 49.7305 c 0
 269.273 136.2 309.812 224.958 343.021 314.961 c 0
 382.141 420.983 410.357 528.245 427.113 634.86 c 0
 429.054 647.211 450.054 665.688 473.987 676.104 c 0
 497.921 686.521 515.77 684.95 513.829 672.6 c 0
 496.797 564.224 468.093 454.986 428.103 346.605 c 0
 394.19 254.697 352.703 163.791 304.007 74.79 c 0
 294.317 57.0811 275.733 30.2119 242.901 6.07324 c 0
 234.805 0.120117 227.851 -4.27832 221.089 -8.18262 c 0
 195.447 -22.9863 174.652 -28.416 165.396 -30.3418 c 0
 158.151 -31.8486 151.075 -32.7939 143.119 -32.8887 c 0
 106.924 -33.3223 54.3574 -22.4766 25.9629 26.7021 c 0
 22.6816 32.3857 19.8418 38.4424 17.4834 44.8594 c 0
 13.9326 54.5186 30.3252 72.8691 54.0732 85.8203 c 0
 77.8213 98.7705 99.9766 101.442 103.527 91.7822 c 0
 105.607 86.1221 108.11 80.7861 110.993 75.7939 c 0
757.007 609.889 m 0
 749.752 622.454 724.427 624.461 678.15 624.461 c 2
 382.911 624.461 l 2
 347.8 624.461 322.353 614.623 311.979 609.787 c 0
 308.846 608.326 306.053 606.864 303.435 605.353 c 0
 294.977 600.47 289.041 595.322 286.229 592.773 c 0
 273.277 581.032 257.565 560.68 250.525 532.519 c 0
 247.302 519.627 225.375 501.26 201.58 491.522 c 0
 177.785 481.784 161.089 484.345 164.312 497.236 c 0
 170.284 521.125 185.3 557.338 227.819 595.886 c 0
 241.711 608.479 260.7 623.195 285.024 637.238 c 0
 294.374 642.637 303.91 647.583 313.395 652.004 c 0
 361.23 674.304 405.105 682.999 444.192 682.999 c 2
 739.432 682.999 l 2
 777.075 682.999 827.616 683.957 842.037 658.98 c 0
 845.961 652.186 847.033 643.355 844.315 632.485 c 0
 841.093 619.594 819.165 601.228 795.37 591.489 c 0
 771.575 581.752 754.879 584.312 758.103 597.203 c 0
 759.435 602.534 758.946 606.529 757.007 609.889 c 0
624.151 301.783 m 1
 355.203 301.783 l 2
 338.316 301.783 338.211 314.775 354.969 330.783 c 0
 371.727 346.791 399.032 359.783 415.92 359.783 c 2
 684.868 359.782 l 2
 694.947 359.782 699.125 355.887 697.221 348.263 c 2
 694.753 338.389 l 2
 691.561 325.615 669.836 307.418 646.26 297.769 c 0
 622.684 288.119 606.141 290.655 609.332 303.428 c 2
 611.8 313.303 l 1
 621.84 319.688 632.755 322.292 636.164 319.112 c 0
 639.573 315.933 634.191 308.169 624.151 301.783 c 1
EndSplineSet
Fore
846 644 m 0
 846 609 790 586 771 586 c 0
 763 586 758 589 758 594 c 0
 758 597 760 604 757 610 c 0
 750 622 724 624 678 624 c 2
 506 624 l 1
 494 562 467 456 433 360 c 1
 685 360 l 2
 695 360 699 356 697 348 c 2
 695 338 l 2
 690 320 649 292 622 292 c 0
 613 292 608 295 609 302 c 1
 411 302 l 1
 380 225 345 149 304 75 c 0
 276 23 206 -33 141 -33 c 0
 46 -33 17 38 17 48 c 0
 17 68 66 98 91 98 c 0
 106 98 101 92 111 76 c 0
 131 41 167 26 202 26 c 2
 204 26 l 1
 239 63 379 341 425 624 c 1
 383 624 l 2
 318 624 266 594 251 533 c 0
 246 514 204 486 177 486 c 0
 169 486 164 489 164 494 c 0
 164 508 185 557 228 596 c 0
 276 640 358 683 444 683 c 2
 755 683 l 2
 788 683 846 682 846 644 c 0
EndSplineSet
EndChar
StartChar: G
Encoding: 71 71 8
Width: 608
Flags: HMW
Back
519.748 570.127 m 0
 530.613 592.129 523.875 609.384 519.883 616.298 c 0
 517.333 620.714 510.924 629.467 498.694 633.506 c 0
 473.238 641.913 445.91 646.061 418.385 646.061 c 0
 381.924 646.061 329.14 640.433 282.892 613.732 c 0
 234.976 586.068 172.14 520.501 143.06 404.184 c 0
 123.968 327.814 130.021 253.043 160.21 200.756 c 0
 193.254 143.525 243.965 128.45 282.973 127.004 c 0
 324.546 125.463 354.006 139.225 368.647 147.678 c 0
 408.188 170.506 469.395 231.606 492.479 323.941 c 0
 495.701 336.833 517.629 355.199 541.424 364.938 c 0
 565.219 374.676 581.915 372.115 578.691 359.224 c 0
 558.292 277.625 497.347 179.466 387.058 115.792 c 0
 328.574 82.0273 269.226 66.6611 219.412 68.5078 c 0
 148.375 71.1416 101.913 105.364 75.1797 151.664 c 0
 42.5859 208.116 36.2607 286.558 56.8467 368.901 c 0
 98.6201 535.994 209.371 613.801 264.481 645.618 c 0
 301.867 667.202 377.421 704.599 479.667 704.599 c 0
 513.648 704.599 544.979 699.594 573.497 690.176 c 0
 588.396 685.255 598.525 676.453 604.913 665.39 c 0
 619.359 640.369 610.837 613.387 602.896 597.306 c 0
 587.291 565.704 566.901 534.74 541.138 504.859 c 0
 527.416 488.945 500.287 473.769 480.582 470.982 c 0
 460.876 468.197 456.021 478.853 469.742 494.767 c 0
 488.967 517.064 506.222 542.735 519.748 570.127 c 0
288.489 -60.0938 m 0
 292.825 -60.0938 300.447 -59.9707 309.573 -58.502 c 0
 319.71 -56.8701 327.047 -54.3037 331.922 -51.4883 c 0
 340.004 -46.8223 342.177 -44.0557 345.666 -40.79 c 0
 422.6 31.2139 467.316 223.293 492.479 323.941 c 0
 495.701 336.833 517.629 355.199 541.424 364.938 c 0
 565.219 374.676 581.915 372.115 578.691 359.224 c 0
 529.163 161.109 490.828 37.2607 406.154 -41.9883 c 0
 391.109 -56.0684 372.385 -70.6426 350.332 -83.374 c 0
 319.947 -100.916 288.37 -111.593 261.89 -115.855 c 0
 249.958 -117.776 238.53 -118.632 227.208 -118.632 c 0
 163.006 -118.631 106.022 -103.705 58.3984 -75.9414 c 0
 48.5107 -70.1768 58.2441 -53.249 80.126 -38.1562 c 0
 102.008 -23.0635 127.792 -15.4922 137.68 -21.2568 c 0
 160.129 -34.3438 211.902 -60.0938 288.489 -60.0938 c 0
EndSplineSet
Fore
480 705 m 0
 528 705 613 697 613 636 c 0
 613 600 574 543 541 505 c 0
 523 484 492 471 475 471 c 0
 466 471 462 474 462 479 c 0
 462 494 526 552 526 594 c 0
 526 606 520 626 499 634 c 0
 473 642 446 646 418 646 c 0
 382 646 329 640 283 614 c 0
 187 558 132 423 132 318 c 0
 132 202 195 127 289 127 c 0
 411 127 477 261 492 324 c 0
 497 342 539 371 566 371 c 0
 574 371 579 368 579 362 c 0
 579 347 518 63 406 -42 c 0
 362 -83 299 -119 227 -119 c 0
 163 -119 106 -104 58 -76 c 1
 56 -74 55 -72 55 -69 c 0
 55 -50 103 -19 129 -19 c 0
 143 -19 188 -60 288 -60 c 0
 320 -60 333 -52 346 -41 c 0
 389 0 423 79 448 159 c 1
 381 102 298 68 227 68 c 0
 103 68 45 165 45 277 c 0
 45 342 70 533 264 646 c 0
 302 667 377 705 480 705 c 0
EndSplineSet
EndChar
StartChar: H
Encoding: 72 72 9
Width: 868
Flags: HMW
Back
274.012 369.979 m 0
 291.421 439.615 302.949 509.185 308.46 577.909 c 0
 309.242 587.663 307.219 596.782 302.928 604.214 c 0
 294.176 619.371 278.744 624.467 267.395 624.461 c 0
 216.858 624.437 189.816 613.567 182.297 610.553 c 0
 176.653 608.291 172.26 606.111 168.23 603.784 c 0
 161.662 599.992 158.311 597.258 156.144 595.548 c 0
 140.761 583.411 121.655 561.812 105.053 528.405 c 0
 97.9326 514.078 73.542 496.391 50.6104 488.923 c 0
 27.6777 481.455 14.8457 487.022 21.9658 501.35 c 0
 35.5938 528.771 59.0566 568.726 108.236 607.528 c 0
 120.949 617.559 135.098 627.17 149.82 635.67 c 0
 164.926 644.391 180.454 651.85 195.456 657.863 c 0
 252.269 680.637 302.153 682.986 328.645 682.999 c 0
 337.438 683.003 371.346 682.077 387.958 653.306 c 0
 393.717 643.331 396.501 631.296 395.392 617.456 c 0
 389.778 547.448 378.029 476.479 360.226 405.262 c 0
 326.666 271.023 283.548 136.892 231.165 3.85352 c 0
 225.756 -9.88379 202.379 -27.9346 178.983 -36.4385 c 0
 155.589 -44.9434 140.991 -40.6963 146.4 -26.96 c 0
 198.131 104.421 240.788 237.083 274.012 369.979 c 0
673.779 266.705 m 0
 656.066 195.852 644.277 125.065 638.548 55.1211 c 0
 637.738 45.2373 639.771 35.957 644.085 28.4844 c 0
 652.368 14.1387 666.995 8.89062 678.095 9.40137 c 0
 693.735 10.1221 726.211 12.8057 738.941 18.375 c 0
 738.961 18.3828 736.972 17.333 737.027 17.3652 c 1
 735.909 16.7188 732.154 14.3896 731.419 13.4639 c 1
 734.24 17.0146 736.949 22.8691 738.726 29.9727 c 0
 741.948 42.8643 763.876 61.2305 787.671 70.9688 c 0
 811.466 80.707 828.161 78.1465 824.938 65.2549 c 0
 819.874 44.9971 808.917 31.0859 805.744 27.0908 c 0
 787.676 4.3457 760.925 -11.3525 755.438 -14.5205 c 0
 745.334 -20.3535 736.881 -24.2002 732.304 -26.2021 c 0
 709.016 -36.3877 676.357 -46.4648 620.044 -49.0596 c 0
 587.017 -50.5811 567.96 -36.0303 559.055 -20.6074 c 0
 553.247 -10.5469 550.475 1.6416 551.619 15.6123 c 0
 557.453 86.8301 569.462 159.003 587.566 231.423 c 0
 621.579 367.476 665.149 503.424 717.986 638.29 c 0
 723.363 652.016 746.721 670.072 770.123 678.595 c 0
 793.525 687.117 808.154 682.896 802.777 669.17 c 0
 750.578 535.934 707.461 401.435 673.779 266.705 c 0
164.727 278.424 m 2
 147.839 278.424 147.733 291.415 164.491 307.424 c 0
 181.249 323.432 208.556 336.423 225.443 336.423 c 2
 632.463 336.421 l 2
 649.351 336.421 649.455 323.429 632.697 307.421 c 0
 615.939 291.413 588.633 278.422 571.745 278.422 c 2
 164.727 278.424 l 2
EndSplineSet
Fore
615 -49 m 0
 577 -49 551 -26 551 10 c 0
 551 40 567 146 588 231 c 2
 602 287 l 1
 591 282 580 278 572 278 c 2
 326 278 l 1
 299 187 267 95 231 4 c 0
 224 -13 184 -41 158 -41 c 0
 150 -41 145 -38 145 -32 c 0
 145 -25 203 111 250 278 c 1
 165 278 l 2
 156 278 152 282 152 287 c 0
 152 307 201 336 225 336 c 2
 266 336 l 1
 292 442 309 550 309 582 c 0
 309 607 290 624 267 624 c 0
 172 624 136 590 105 528 c 0
 96 511 57 486 33 486 c 0
 25 486 20 489 20 494 c 0
 20 503 51 563 108 608 c 0
 177 662 257 683 329 683 c 0
 369 683 396 659 396 623 c 0
 396 593 381 490 360 405 c 2
 342 336 l 1
 616 336 l 1
 645 437 679 538 718 638 c 0
 725 656 765 683 791 683 c 0
 799 683 804 680 804 674 c 0
 804 612 638 240 638 51 c 0
 638 28 655 9 677 9 c 0
 686 9 717 12 733 16 c 1
 739 28 740 52 788 71 c 0
 797 75 806 77 812 77 c 0
 820 77 825 74 825 68 c 0
 825 47 781 -42 620 -49 c 0
 618 -49 617 -49 615 -49 c 0
EndSplineSet
EndChar
StartChar: I
Encoding: 73 73 10
Width: 562
Flags: HMW
Back
332.214 624.461 m 2
 250.997 624.461 192.656 622.449 151.336 608.973 c 0
 143.424 606.393 139.148 604.196 137.893 603.472 c 0
 132.402 600.302 126.894 591.359 124.787 587.577 c 0
 121.366 581.437 118.102 573.516 115.767 564.176 c 0
 112.544 551.283 90.6162 532.917 66.8213 523.18 c 0
 43.0264 513.441 26.3311 516.001 29.5537 528.893 c 0
 31.2471 535.666 34.9375 548.51 42.9678 562.925 c 0
 57.7324 589.431 83.9824 614.861 119.483 635.357 c 0
 136.68 645.285 155.615 653.864 177.054 660.856 c 0
 252.081 685.326 347.633 682.999 393.495 682.999 c 2
 639.204 682.999 l 2
 656.249 682.999 656.354 669.886 639.441 653.729 c 0
 622.527 637.573 594.968 624.461 577.923 624.461 c 2
 332.214 624.461 l 2
456.366 627.224 m 1
 456.191 627.123 459.438 629.205 459.312 629.096 c 0
 406.196 583.435 357.57 363.64 356.467 359.224 c 0
 319.836 212.703 289.804 100.468 196.746 37.9814 c 0
 193.94 36.0977 196.184 36.9854 182.203 28.9141 c 0
 175.098 24.8115 167.423 20.7686 157.76 16.5586 c 0
 128.613 3.8623 104.992 0.166992 83.9961 0.166992 c 0
 66.9521 0.166992 66.8457 13.2793 83.7598 29.4355 c 0
 100.673 45.5918 128.233 58.7041 145.277 58.7041 c 0
 151.112 58.7041 160.635 59.4961 164.72 61.2764 c 0
 164.746 61.2871 163.634 60.708 163.793 60.7998 c 0
 167.48 62.9287 161.627 59.3652 163.492 60.6172 c 0
 219.881 98.4824 269.449 320.725 270.253 323.941 c 0
 308.228 475.84 337.644 577.913 404.649 635.516 c 0
 413.615 643.223 424.844 651.539 437.956 659.108 c 0
 443.089 662.072 467.061 675.891 494.76 680.972 c 0
 501.78 682.26 508.562 682.999 516.35 682.999 c 0
 533.395 682.999 533.5 669.886 516.587 653.729 c 0
 499.673 637.573 472.113 624.461 455.068 624.461 c 0
 452.788 624.461 450.763 624.267 449.548 624.044 c 0
 448.12 623.782 452.187 624.811 456.366 627.224 c 1
485.858 34.7217 m 0
 458.745 19.0674 431.175 10.1895 412.088 5.95508 c 0
 393.529 1.83887 376.507 0.166016 360.427 0.166016 c 2
 -8.14746 0.166016 l 2
 -25.1914 0.166016 -25.2979 13.2783 -8.38379 29.4355 c 0
 8.5293 45.5918 36.0898 58.7041 53.1338 58.7041 c 2
 421.708 58.7041 l 2
 433.003 58.7041 444.095 60.041 452.701 61.9502 c 0
 455.871 62.6533 464.292 64.7852 467.448 66.6064 c 0
 467.449 66.6074 465.936 65.4805 466.389 65.9131 c 0
 470.35 69.6953 474.176 77.3555 476.044 84.8301 c 0
 479.268 97.7217 501.194 116.088 524.989 125.826 c 0
 548.784 135.563 565.48 133.004 562.258 120.112 c 0
 558.935 106.819 550.833 87.5801 528.126 65.8955 c 0
 518.325 56.5371 503.938 45.1602 485.858 34.7217 c 0
EndSplineSet
Fore
563 123 m 0
 563 86 478 0 360 0 c 2
 -8 0 l 2
 -17 0 -21 3 -21 9 c 0
 -21 29 28 59 53 59 c 2
 145 59 l 2
 151 59 160 59 164 61 c 0
 220 100 269 321 270 324 c 0
 304 459 331 562 393 624 c 1
 332 624 l 2
 139 624 127 607 116 564 c 0
 111 546 69 517 42 517 c 0
 34 517 29 520 29 526 c 0
 29 553 73 627 177 661 c 0
 240 681 318 683 368 683 c 2
 639 683 l 2
 648 683 652 680 652 674 c 0
 652 654 603 624 578 624 c 2
 454 624 l 1
 403 570 358 364 356 359 c 0
 324 230 296 124 224 59 c 1
 422 59 l 2
 439 59 459 62 467 66 c 1
 478 77 471 104 525 126 c 0
 535 130 543 132 550 132 c 0
 558 132 563 129 563 123 c 0
EndSplineSet
EndChar
StartChar: J
Encoding: 74 74 11
Width: 694
Flags: HMW
Back
561.017 624.461 m 2
 514.409 624.461 474.425 610.682 448.419 595.667 c 0
 400.715 568.126 369.647 521.195 358.394 476.181 c 0
 355.171 463.289 333.243 444.923 309.448 435.185 c 0
 285.653 425.447 268.957 428.007 272.181 440.898 c 0
 290.867 515.645 350.33 581.551 430.009 627.553 c 0
 497.299 666.402 565.545 682.998 622.298 682.999 c 2
 844.811 682.998 l 2
 861.855 682.998 861.962 669.886 845.048 653.729 c 0
 828.135 637.573 800.574 624.461 783.529 624.461 c 2
 561.017 624.461 l 2
752.252 618.461 m 0
 746.105 614.912 747.964 616.422 739.04 607.985 c 0
 643.688 517.826 580.151 228.528 561.587 154.271 c 0
 542.731 78.8496 485.802 -11.9365 381.395 -72.2148 c 0
 326.577 -103.864 273.378 -118.632 225.466 -118.632 c 0
 150.02 -118.631 94.1807 -86.0342 67.0889 -39.1123 c 0
 46.5635 -3.56348 43.3799 38.0205 53.7646 79.5566 c 0
 56.9873 92.4492 78.915 110.815 102.71 120.553 c 0
 126.504 130.291 143.2 127.731 139.978 114.839 c 0
 130.787 78.0791 133.947 41.4521 152.119 9.97949 c 0
 178.082 -34.9873 229.754 -60.0938 286.747 -60.0938 c 0
 308.966 -60.0938 336.69 -55.5107 362.984 -40.3291 c 0
 398.226 -19.9834 454.329 34.8115 475.374 118.989 c 0
 526.271 322.574 574.997 511.271 677.912 608.581 c 0
 692.921 622.772 711.519 637.459 733.842 650.347 c 0
 767.347 669.69 799.067 679.388 827.174 682.135 c 0
 833.745 682.777 839.626 682.998 844.811 682.998 c 0
 861.855 682.998 861.962 669.886 845.048 653.729 c 0
 828.135 637.573 800.574 624.461 783.529 624.461 c 0
 778.345 624.461 774.756 624.118 773.341 623.979 c 0
 760.61 622.735 754.509 619.764 752.252 618.461 c 0
EndSplineSet
Fore
845 683 m 2
 853 683 858 680 858 674 c 0
 858 654 808 624 784 624 c 0
 756 624 749 618 739 608 c 0
 644 518 580 229 562 154 c 0
 524 5 364 -119 225 -119 c 0
 123 -119 48 -57 48 34 c 0
 48 49 50 64 54 80 c 0
 58 98 100 126 127 126 c 0
 136 126 140 124 140 118 c 0
 140 114 135 101 135 76 c 0
 135 -6 202 -60 287 -60 c 0
 400 -60 460 58 475 119 c 0
 523 308 574 527 696 624 c 1
 561 624 l 2
 453 624 379 557 358 476 c 0
 354 458 312 429 285 429 c 0
 277 429 272 432 272 438 c 0
 272 473 327 568 430 628 c 0
 497 666 566 683 622 683 c 2
 845 683 l 2
EndSplineSet
EndChar
StartChar: K
Encoding: 75 75 12
Width: 779
Flags: HMW
Back
160.069 390.695 m 0
 180.307 471.643 192.647 552.498 196.888 632.062 c 1
 170.771 618.886 l 2
 146.809 606.796 126.114 605.682 124.579 616.399 c 0
 123.044 627.116 141.247 645.627 165.21 657.717 c 2
 238.603 694.745 l 2
 251.352 701.178 262.155 704.421 271.401 704.593 c 0
 280.647 704.764 285.086 701.803 284.877 695.604 c 0
 281.893 607.098 268.973 516.737 246.283 425.978 c 0
 212.614 291.301 169.387 156.729 116.895 23.251 c 0
 111.493 9.5166 88.1211 -8.53613 64.7246 -17.0449 c 0
 41.3271 -25.5537 26.7227 -21.3135 32.123 -7.5791 c 0
 83.9668 124.249 126.735 257.355 160.069 390.695 c 0
678.304 640.627 m 0
 675.517 645.455 666.426 657.008 650.93 657.008 c 0
 629.573 657.008 572.462 635.025 499.771 593.057 c 0
 383.984 526.207 316.832 462.867 310.531 437.664 c 0
 303.462 409.386 334.531 297.685 404.51 176.476 c 0
 431.643 129.48 498.331 28.7607 545.458 26.1865 c 0
 545.66 26.1758 508.453 26.1572 546.489 26.1572 c 0
 589.606 26.1572 621.237 39.5225 636.699 48.4492 c 0
 657.706 60.5781 675.333 78.8584 682.228 106.438 c 0
 685.297 118.714 701.906 132.528 719.301 137.271 c 0
 736.696 142.016 748.323 135.901 745.254 123.625 c 0
 734.466 80.4727 700.7 42.7705 655.158 16.4766 c 0
 606.048 -11.877 554.066 -21.5283 513.399 -21.5283 c 0
 475.364 -21.5293 509.228 -21.418 509.124 -21.4121 c 0
 453.456 -18.3721 394.487 52.3135 343.23 141.096 c 0
 295.349 224.031 234.028 366.566 247.505 420.477 c 0
 262.614 480.914 386.147 570.086 481.312 625.028 c 0
 540.465 659.181 631.546 704.694 684.02 704.694 c 0
 714.207 704.694 731.602 689.832 739.583 676.007 c 0
 747.743 661.874 750.168 643.873 745.06 623.438 c 0
 741.99 611.162 725.382 597.348 707.986 592.604 c 0
 690.591 587.86 678.964 593.975 682.033 606.251 c 0
 685.168 618.792 683.654 631.359 678.304 640.627 c 0
EndSplineSet
Fore
31 -13 m 0
 31 1 181 343 197 632 c 1
 171 619 l 2
 158 612 146 609 137 609 c 0
 131 609 124 611 124 618 c 0
 124 629 142 646 165 658 c 2
 239 695 l 2
 251 701 263 704 272 705 c 0
 281 705 285 702 285 696 c 0
 280 560 245 348 117 23 c 0
 110 6 70 -21 44 -21 c 0
 36 -21 31 -18 31 -13 c 0
748 644 m 0
 748 595 703 591 697 591 c 0
 688 591 682 595 682 602 c 0
 682 606 684 611 684 619 c 0
 684 641 668 657 651 657 c 0
 585 657 325 497 311 438 c 0
 310 435 310 432 310 428 c 0
 310 332 461 31 546 26 c 0
 590 26 666 42 682 106 c 0
 686 121 709 139 730 139 c 0
 740 139 746 135 746 127 c 0
 746 126 746 126 745 124 c 1
 725 43 620 -22 511 -22 c 0
 393 -15 246 307 246 403 c 0
 246 409 246 415 248 420 c 0
 271 513 580 705 684 705 c 0
 724 705 748 679 748 644 c 0
EndSplineSet
EndChar
StartChar: L
Encoding: 76 76 13
Width: 705
Flags: HMW
Back
564.27 12.0586 m 0
 552.432 5.22363 538.646 -1.72852 523.081 -7.68359 c 0
 493.928 -18.8379 471.929 -21.2832 456.901 -21.2832 c 0
 342.586 -21.2832 246.302 34.4854 140.398 34.4854 c 0
 135.775 34.4854 131.325 33.874 128.6 33.0918 c 0
 127.605 32.8066 129.721 33.4629 132.6 35.125 c 1
 132.595 35.1221 135.18 36.7168 135.583 37.0537 c 1
 132.674 34.6201 128.239 29.1621 125.327 24.7021 c 0
 115.095 9.03613 86.7129 -10.0557 61.9727 -17.9131 c 0
 37.2334 -25.7705 25.459 -19.4336 35.6904 -3.76758 c 0
 50.96 19.6113 70.0654 35.4121 75.1152 39.6357 c 0
 88.2686 50.6387 101.906 59.7393 114.269 66.876 c 0
 140.865 82.2314 161.098 88.6201 170.905 91.4365 c 0
 185.367 95.5898 199.621 97.9863 213.724 97.9863 c 0
 328.039 97.9863 424.323 42.2178 530.226 42.2178 c 0
 535.806 42.2178 543.69 43.1758 547.656 44.6934 c 0
 547.669 44.6982 546.865 44.3447 545.938 43.8096 c 1
 546.157 43.9355 544.94 43.1865 544.968 43.2061 c 0
 552.001 48.1621 568.447 68.2158 574.826 93.7305 c 0
 578.075 106.728 602.279 126.818 628.854 138.577 c 0
 655.428 150.335 674.358 149.329 671.108 136.332 c 0
 662.967 103.767 639.656 63.6533 587.645 26.9932 c 0
 578.863 20.8037 570.774 15.8145 564.27 12.0586 c 0
521.451 608.972 m 0
 507.683 632.82 485.725 640.947 467.562 640.947 c 0
 462.979 640.947 454.88 640.835 444.953 639.218 c 0
 440.675 638.521 429.905 636.283 424.676 633.264 c 0
 418.895 629.926 416.146 627.192 410.349 621.586 c 0
 333.009 546.8 286.524 367.774 262.821 272.963 c 0
 231.942 149.449 173.125 67.8145 115.614 13.498 c 0
 97.1416 -3.94824 66.4229 -19.4648 47.0439 -21.1377 c 0
 27.666 -22.8105 26.9316 -10.0088 45.4033 7.4375 c 0
 94.9229 54.2051 140.967 128.076 166.538 230.361 c 0
 208.826 399.515 253.66 531.921 338.528 613.986 c 0
 355.827 630.714 378.276 648.81 406.345 665.015 c 0
 442.062 685.636 474.406 696.598 504.348 701.477 c 0
 517.01 703.54 529.014 704.448 540.888 704.448 c 0
 565.399 704.448 597.467 697.284 616.704 663.965 c 0
 634.225 633.617 632.44 595.944 625.413 567.835 c 0
 622.163 554.838 597.959 534.747 571.385 522.989 c 0
 544.811 511.231 525.881 512.236 529.13 525.233 c 0
 535.255 549.731 536.723 582.52 521.451 608.972 c 0
EndSplineSet
Fore
533 560 m 0
 533 607 507 641 468 641 c 0
 426 641 418 629 410 622 c 0
 333 547 287 368 263 273 c 0
 247 210 218 147 184 95 c 1
 194 97 204 98 214 98 c 0
 328 98 424 42 530 42 c 0
 535 42 542 43 546 44 c 1
 554 51 569 70 575 94 c 0
 579 111 629 147 660 147 c 0
 667 147 671 144 671 139 c 0
 671 93 565 -21 457 -21 c 0
 343 -21 246 34 140 34 c 2
 138 34 l 1
 95 -12 63 -21 44 -21 c 0
 36 -21 32 -18 32 -14 c 0
 32 7 122 52 167 230 c 0
 217 428 269 586 406 665 c 0
 442 685 487 704 541 704 c 0
 601 704 630 661 630 608 c 0
 630 594 628 580 625 568 c 0
 621 550 571 515 541 515 c 0
 533 515 529 517 529 523 c 0
 529 526 533 537 533 560 c 0
EndSplineSet
EndChar
StartChar: M
Encoding: 77 77 14
Width: 1226
Flags: HMW
Back
552.01 266.014 m 0
 568.762 211.577 591.138 160.046 618.835 112.071 c 2
 620.004 110.055 l 1
 589.256 80.9844 l 1
 574.888 34.1895 l 1
 568.928 34.1895 564.384 35.8018 562.225 39.1611 c 0
 555.951 48.9248 549.905 58.8447 544.09 68.918 c 0
 515.784 117.947 492.93 170.582 475.815 226.194 c 0
 443.317 331.793 415.524 439.636 392.497 549.476 c 1
 372.815 455.791 345.797 361.342 311.698 267.657 c 0
 308.102 257.775 304.427 247.904 300.676 238.044 c 0
 263.004 139.021 191.172 -54.8633 117.27 -49.8008 c 0
 102.953 -48.8193 89.3066 -45.9873 76.6064 -41.3652 c 0
 71.7998 -39.6152 67.1289 -37.6084 62.6074 -35.3457 c 0
 59.3164 -33.6992 42.7041 -25.3682 32.083 -12.918 c 0
 24.6777 -4.23828 27.624 22.4111 38.6602 46.5664 c 0
 49.6973 70.7227 64.6641 83.2822 72.0693 74.6025 c 0
 77.25 68.5303 86.7188 61.6191 97.6094 56.1689 c 0
 101.64 54.1523 105.824 52.3525 110.146 50.7803 c 0
 121.561 46.626 133.926 44.0518 146.9 43.1631 c 0
 180.272 40.877 212.003 108.444 267.44 254.163 c 0
 270.745 262.851 273.979 271.541 277.144 280.234 c 0
 323.002 406.23 354.345 533.151 370.677 660.879 c 1
 371.042 660.748 l 1
 371.045 671.362 386.132 687.137 406.162 696.994 c 0
 427.329 707.411 446.042 707.297 447.93 696.737 c 0
 474.24 549.604 508.981 405.835 552.01 266.014 c 0
1063.07 204.693 m 0
 1058.58 153.247 1059.28 102.709 1065.15 53.8184 c 0
 1065.64 49.7275 1066.87 46.0586 1068.68 42.9209 c 0
 1075.09 31.833 1085.83 30.3643 1089.91 30.249 c 1
 1100.79 35.7373 l 2
 1124.75 47.8271 1145.45 48.9404 1146.98 38.2227 c 0
 1148.52 27.5049 1130.31 8.99414 1106.35 -3.0957 c 2
 1089.53 -11.5801 l 2
 1067.88 -22.5 1049.63 -26.8271 1036.75 -27.96 c 0
 1004.68 -30.7812 990.378 -17.8154 983.654 -6.16992 c 0
 980.879 -1.36328 979.025 4.16016 978.275 10.3936 c 0
 972.254 60.5098 971.527 112.373 976.152 165.307 c 0
 987.801 298.594 1006.22 432.862 1031.35 567.639 c 1
 1109.6 657.941 l 1
 1133.6 685.43 l 1
 1133.59 684.734 1133.5 683.999 1133.34 683.225 c 0
 1100.38 522.922 1076.92 363.136 1063.07 204.693 c 0
760.196 292.15 m 0
 879.248 424.156 995.464 558.271 1108.73 694.361 c 0
 1122.01 710.32 1133.18 706.955 1133.66 686.852 c 0
 1134.14 666.747 1123.75 637.479 1110.47 621.521 c 0
 996.198 484.225 879.028 349.01 759.066 215.995 c 0
 703.937 154.867 646.158 96.1816 585.973 40.1328 c 0
 572.807 27.8711 563.592 36.2217 565.404 58.7715 c 0
 567.217 81.3213 579.373 109.574 592.54 121.836 c 0
 651.098 176.368 707.08 233.255 760.196 292.15 c 0
EndSplineSet
Fore
760 292 m 2
 1109 694 l 2
 1114 701 1120 704 1124 704 c 0
 1130 704 1134 698 1134 685 c 0
 1134 671 1089 504 1063 205 c 0
 1061 182 1060 160 1060 138 c 0
 1060 53 1066 31 1090 30 c 1
 1101 36 l 2
 1114 42 1126 46 1134 46 c 0
 1140 46 1147 44 1147 37 c 0
 1147 26 1129 9 1106 -3 c 2
 1090 -12 l 2
 1062 -26 1040 -28 1028 -28 c 0
 976 -28 973 11 973 97 c 0
 973 182 996 366 1023 520 c 1
 759 216 l 2
 704 155 646 96 586 40 c 0
 582 36 578 34 575 34 c 0
 564 34 562 38 544 69 c 0
 496 153 454 269 392 549 c 1
 373 456 346 361 312 268 c 2
 301 238 l 2
 263 140 193 -50 120 -50 c 0
 98 -50 54 -39 32 -13 c 0
 29 -10 28 -4 28 3 c 0
 28 35 51 77 66 77 c 0
 73 77 98 43 149 43 c 0
 181 43 212 111 267 254 c 2
 277 280 l 2
 323 406 354 533 371 661 c 0
 371 678 409 705 434 705 c 0
 442 705 447 702 448 697 c 0
 474 550 509 406 552 266 c 0
 566 220 584 176 606 135 c 1
 660 185 711 238 760 292 c 2
EndSplineSet
EndChar
StartChar: N
Encoding: 78 78 15
Width: 841
Flags: HMW
Back
816.974 645.488 m 1
 815.42 642.04 812.902 635.496 809.386 625.834 c 0
 795.697 588.223 781.426 538.443 764.409 477.908 c 0
 720.99 323.451 681.927 168.854 647.258 14.2666 c 1
 646.164 17.1162 l 1
 608.393 17.1162 l 1
 642.771 168.719 681.302 320.457 723.938 472.128 c 0
 732.479 502.516 755.399 585.024 774.831 638.412 c 0
 785.978 669.037 793.587 683.98 795.903 688.546 c 0
 808.561 713.485 818.061 722.005 820.354 724.122 c 0
 874.774 774.381 942.588 776.488 989.207 776.488 c 0
 999.908 776.488 1002.2 755.656 994.314 729.988 c 0
 986.433 704.32 971.351 683.489 960.649 683.489 c 0
 899.874 683.489 851.264 677.093 816.974 645.488 c 1
42.3408 55.9902 m 0
 46.1855 54.1045 50.166 52.4111 54.2656 50.9189 c 0
 65.915 46.6787 78.5352 44.0596 91.7744 43.1641 c 0
 117.497 41.4248 135.931 69.7695 162.423 142.555 c 0
 169.73 162.632 177 184.458 184.207 206.154 c 0
 243.418 384.422 270.3 539.163 282.39 661.088 c 1
 282.517 660.748 l 1
 325.263 660.748 l 1
 310.087 533.391 279.941 377.438 221.194 200.568 c 0
 213.976 178.836 205.988 154.735 196.978 129.977 c 0
 161.428 32.3076 115.853 -53.4307 62.1582 -49.7998 c 0
 47.5703 -48.8135 33.666 -45.9355 20.7275 -41.2266 c 0
 16.1738 -39.5693 11.7393 -37.6846 7.4375 -35.5732 c 0
 4.06641 -33.9189 -12.9512 -25.5527 -23.8623 -12.9814 c 0
 -31.3125 -4.39844 -28.4258 22.2012 -17.4189 46.3916 c 0
 -6.41309 70.5811 8.56641 83.248 16.0156 74.665 c 0
 21.3867 68.4766 31.1523 61.4805 42.3408 55.9902 c 0
530.923 224.057 m 0
 547.594 184.621 566.527 146.546 587.646 109.968 c 0
 605.13 79.6836 624.111 50.4258 644.545 22.2725 c 0
 650.568 13.9736 638.917 -2.74023 618.536 -15.0352 c 0
 598.156 -27.3291 576.727 -30.5723 570.703 -22.2734 c 0
 549.939 6.33398 530.658 36.0557 512.9 66.8135 c 0
 491.452 103.964 472.227 142.627 455.3 182.667 c 0
 390.098 336.897 332.599 495.476 282.955 657.971 c 0
 279.908 667.943 294.506 684.949 315.538 695.931 c 0
 336.57 706.911 356.112 707.73 359.159 697.758 c 0
 408.635 535.812 465.941 377.767 530.923 224.057 c 0
EndSplineSet
Fore
346 705 m 0
 353 705 358 702 359 698 c 0
 421 497 524 204 618 60 c 1
 650 193 747 591 796 689 c 0
 826 748 885 776 989 776 c 0
 996 776 999 769 999 758 c 0
 999 726 976 683 961 683 c 0
 900 683 851 677 817 645 c 1
 791 587 704 269 647 14 c 1
 646 17 l 1
 646 -0 608 -27 583 -27 c 0
 577 -27 573 -25 571 -22 c 0
 498 78 438 191 312 566 c 1
 283 390 236 238 197 130 c 0
 162 34 118 -50 65 -50 c 0
 43 -50 -1 -39 -24 -13 c 0
 -27 -10 -28 -4 -28 3 c 0
 -28 35 -5 77 10 77 c 0
 17 77 42 43 94 43 c 0
 130 43 154 115 184 206 c 0
 243 384 270 539 282 661 c 0
 282 678 320 705 346 705 c 0
EndSplineSet
EndChar
StartChar: O
Encoding: 79 79 16
Width: 814
Flags: HMW
Back
348.172 647.88 m 0
 269.208 602.291 186.409 511.275 156.937 393.384 c 0
 133.345 299.019 142.865 208.51 180.895 142.646 c 0
 219.706 75.4258 285.562 37.1045 367.265 37.1045 c 0
 410.157 37.1045 459.907 47.0967 509.113 75.5049 c 0
 579.247 115.996 661.736 203.984 691.726 323.941 c 0
 716.507 423.064 708.024 513.198 674.606 571.076 c 0
 663.165 590.894 627.981 646.061 544.565 646.061 c 0
 531.471 646.061 521.879 644.298 515.434 642.721 c 0
 507.452 640.769 500.504 638.252 492.688 633.74 c 0
 481.087 627.042 490.53 632.788 483.922 628.044 c 0
 450.449 604.019 410.3 552.616 379.141 479.036 c 0
 373.251 465.127 349.578 447.167 326.299 438.947 c 0
 303.021 430.729 288.908 435.347 294.799 449.256 c 0
 310.716 486.844 354.112 581.523 444.359 646.302 c 0
 453.721 653.021 463.76 659.553 474.278 665.626 c 0
 500.201 680.592 528.216 691.94 553.086 698.024 c 0
 571.83 702.61 589.18 704.599 605.847 704.599 c 0
 682.707 704.599 731.329 669.197 759.637 620.168 c 0
 797.727 554.198 802.674 458.164 777.938 359.224 c 0
 749.437 245.217 664.398 122.644 527.523 43.6191 c 0
 449.794 -1.25684 372.651 -21.4336 305.983 -21.4336 c 0
 173.785 -21.4336 116.329 58.1094 95.8643 93.5547 c 0
 55.623 163.249 45.5547 257.43 70.7227 358.102 c 0
 99.2041 472.025 185.868 596.689 329.762 679.766 c 0
 338.568 684.85 347.521 689.729 356.571 694.368 c 0
 380.505 706.64 401.507 708.069 403.45 697.561 c 0
 405.395 687.051 387.548 668.562 363.614 656.291 c 0
 358.383 653.608 353.246 650.81 348.172 647.88 c 0
EndSplineSet
Fore
57 251 m 0
 57 542 347 705 391 705 c 0
 397 705 404 703 404 696 c 0
 404 674 351 650 348 648 c 0
 252 592 144 465 144 292 c 0
 144 142 233 37 367 37 c 0
 546 37 706 219 706 435 c 0
 706 561 648 646 545 646 c 0
 507 646 489 631 484 628 c 0
 450 604 410 553 379 479 c 0
 371 460 331 435 306 435 c 0
 298 435 293 438 293 444 c 0
 293 445 294 447 295 449 c 0
 374 637 515 705 606 705 c 0
 738 705 793 599 793 477 c 0
 793 181 515 -21 306 -21 c 0
 152 -21 57 91 57 251 c 0
EndSplineSet
EndChar
StartChar: P
Encoding: 80 80 17
Width: 715
Flags: HMW
Back
227.577 298.424 m 0
 255.668 410.789 274.249 523.043 283.092 633.951 c 0
 284.041 645.86 304.284 664.387 328.277 675.305 c 0
 352.271 686.223 370.974 685.418 370.023 673.509 c 0
 361.079 561.313 342.278 447.656 313.79 333.706 c 0
 285.303 219.756 247.231 105.919 199.92 -6.65332 c 0
 194.082 -20.5439 170.44 -38.5137 147.149 -46.7646 c 0
 123.857 -55.0146 109.692 -50.4375 115.53 -36.5459 c 0
 161.983 73.9854 199.486 186.06 227.577 298.424 c 0
150.755 594.653 m 0
 143.045 590.202 136.699 585.182 130.609 578.515 c 0
 121.819 568.89 111.945 553.852 106.612 532.518 c 0
 103.389 519.626 81.4609 501.26 57.667 491.521 c 0
 33.8721 481.784 17.1758 484.344 20.3984 497.236 c 0
 26.8086 522.876 39.4512 546.86 61.6484 571.164 c 0
 79.707 590.937 105.158 610.844 132.345 626.539 c 0
 142.681 632.507 139.272 630.445 141.016 631.39 c 0
 219.821 674.102 302.931 682.999 357.198 682.999 c 0
 374.243 682.998 374.349 669.886 357.436 653.729 c 0
 340.521 637.573 312.961 624.461 295.917 624.461 c 0
 230.473 624.461 178.953 609.98 153.288 596.069 c 0
 153.251 596.05 155.389 597.329 150.755 594.653 c 0
551.911 307.172 m 0
 637.122 356.367 656.438 431.882 660.313 447.386 c 0
 668.953 481.943 664.732 511.496 650.59 535.988 c 0
 616.126 595.68 523.626 624.461 423.13 624.461 c 2
 295.917 624.461 l 2
 278.873 624.461 278.767 637.573 295.68 653.729 c 0
 312.594 669.886 340.153 682.998 357.198 682.999 c 2
 484.411 682.999 l 2
 592.757 682.999 696.735 652.428 735.621 585.08 c 0
 751.559 557.476 756.746 523.548 746.526 482.668 c 0
 725.447 398.352 659.104 326.544 570.321 275.286 c 0
 482.56 224.618 391.715 205.118 318.294 205.118 c 0
 301.249 205.118 301.144 218.23 318.057 234.387 c 0
 334.97 250.543 362.53 263.655 379.575 263.655 c 0
 449.896 263.656 510.883 283.484 551.911 307.172 c 0
EndSplineSet
Fore
305 214 m 0
 305 234 355 264 380 264 c 0
 574 264 665 395 665 482 c 0
 665 568 569 624 423 624 c 2
 366 624 l 1
 337 368 268 157 200 -7 c 0
 193 -24 153 -51 127 -51 c 0
 119 -51 114 -48 114 -42 c 0
 114 -27 250 243 282 624 c 1
 128 618 113 558 107 533 c 0
 102 514 60 486 33 486 c 0
 25 486 20 489 20 494 c 0
 20 505 35 542 62 571 c 0
 87 599 180 683 357 683 c 2
 484 683 l 2
 591 683 752 649 752 523 c 0
 752 371 540 205 318 205 c 0
 310 205 305 208 305 214 c 0
EndSplineSet
EndChar
StartChar: Q
Encoding: 81 81 18
Width: 836
Flags: HMW
Back
445.987 54.8809 m 0
 463.542 60.9277 484.677 69.6553 508.287 83.2861 c 0
 605.101 139.181 669.803 234.949 692.051 323.941 c 0
 713.221 408.619 704.447 489.756 670.18 549.104 c 0
 634.495 610.909 573.509 646.061 498.871 646.061 c 0
 459.479 646.061 413.96 637.12 368.924 611.119 c 0
 308.585 576.283 235.352 500.236 208.813 394.086 c 0
 196.75 345.834 196.06 286.137 225.098 235.845 c 0
 258.895 177.31 315.566 161.175 357.726 161.175 c 0
 399.234 161.175 435.46 172.842 463.046 188.033 c 0
 486.754 201.089 509.087 203.96 512.896 194.443 c 0
 516.706 184.926 500.557 166.605 476.849 153.55 c 0
 412.211 117.955 349.296 102.637 296.445 102.637 c 0
 219.951 102.637 168.239 137.96 140.067 186.753 c 0
 108.52 241.393 109.492 306.372 122.601 358.804 c 0
 148.114 460.86 225.106 570.603 350.514 643.005 c 0
 424.073 685.474 497.08 704.599 560.151 704.599 c 0
 654.935 704.599 719.466 660.104 755.21 598.196 c 0
 791.663 535.062 801.021 450.248 778.265 359.224 c 0
 748.453 239.979 655.485 125.756 526.697 51.4014 c 0
 497.292 34.4238 462.128 17.3906 423.229 3.99023 c 0
 319.93 -31.5957 218.259 -29.2686 150.308 -29.2686 c 0
 133.264 -29.2686 133.157 -16.1562 150.07 0 c 0
 166.984 16.1562 194.545 29.2686 211.589 29.2686 c 0
 309.349 29.2686 379.005 31.8057 445.987 54.8809 c 0
656.103 -67.9297 m 0
 659.722 -67.9297 666.308 -67.7559 674.18 -66.2832 c 0
 681.174 -64.9746 688.047 -62.8408 692.692 -60.1582 c 0
 698.675 -56.7041 703.759 -50.6582 706.761 -46.6494 c 0
 716.046 -34.248 719.48 -21.4844 720.441 -17.6416 c 0
 723.664 -4.74902 745.592 13.6172 769.387 23.3545 c 0
 793.182 33.0928 809.878 30.5332 806.654 17.6406 c 0
 801.284 -3.83984 790.557 -20.4434 782.851 -30.7344 c 0
 767.42 -51.3408 742.392 -73.9795 711.103 -92.0439 c 0
 682.428 -108.6 653.6 -118.604 629.383 -123.135 c 0
 617.149 -125.423 605.688 -126.467 594.822 -126.467 c 0
 429.234 -126.467 304.799 -29.2686 150.308 -29.2686 c 0
 133.264 -29.2686 133.157 -16.1562 150.07 0 c 0
 166.984 16.1562 194.545 29.2686 211.589 29.2686 c 0
 377.176 29.2686 501.611 -67.9297 656.103 -67.9297 c 0
EndSplineSet
Fore
791 456 m 0
 791 250 616 57 395 -5 c 1
 481 -33 563 -68 656 -68 c 0
 673 -68 708 -67 720 -18 c 0
 725 1 767 29 794 29 c 0
 802 29 807 26 807 21 c 0
 807 -22 710 -126 595 -126 c 0
 429 -126 305 -29 150 -29 c 0
 142 -29 137 -26 137 -21 c 0
 137 -1 187 29 212 29 c 0
 350 29 427 36 508 83 c 0
 628 152 703 281 703 414 c 0
 703 551 622 646 499 646 c 0
 320 646 201 462 201 332 c 0
 201 225 272 161 358 161 c 0
 437 161 470 200 501 200 c 0
 507 200 513 198 513 191 c 0
 513 162 397 103 296 103 c 0
 180 103 114 185 114 291 c 0
 114 491 343 705 560 705 c 0
 710 705 791 594 791 456 c 0
EndSplineSet
EndChar
StartChar: R
Encoding: 82 82 19
Width: 871
Flags: HMW
Back
231.257 313.142 m 0
 258.119 420.592 275.475 527.931 283.085 633.864 c 0
 283.938 645.729 304.104 664.259 328.102 675.225 c 0
 352.099 686.19 370.883 685.461 370.03 673.596 c 0
 362.324 566.328 344.747 457.531 317.47 348.424 c 0
 290.193 239.316 253.324 130.323 207.22 22.6426 c 0
 201.253 8.70605 177.533 -9.23828 154.274 -17.4121 c 0
 131.016 -25.585 116.981 -20.9082 122.948 -6.97168 c 0
 168.128 98.5488 204.395 205.692 231.257 313.142 c 0
150.755 594.653 m 0
 143.045 590.202 136.699 585.182 130.609 578.515 c 0
 121.819 568.89 111.945 553.852 106.612 532.518 c 0
 103.389 519.626 81.4609 501.26 57.667 491.521 c 0
 33.8721 481.784 17.1758 484.344 20.3984 497.236 c 0
 26.8086 522.876 39.4512 546.86 61.6484 571.164 c 0
 79.707 590.937 105.158 610.844 132.345 626.539 c 0
 142.681 632.507 139.272 630.445 141.016 631.39 c 0
 219.821 674.102 302.931 682.999 357.198 682.999 c 0
 374.243 682.998 374.349 669.886 357.436 653.729 c 0
 340.521 637.573 312.961 624.461 295.917 624.461 c 0
 230.473 624.461 178.953 609.98 153.288 596.069 c 0
 153.251 596.05 161.091 600.621 150.755 594.653 c 0
573.199 366.267 m 0
 640.598 405.179 655.644 467.142 658.39 478.125 c 0
 667.236 513.513 664.335 539.939 652.684 560.119 c 0
 620.722 615.476 519.969 624.461 399.524 624.461 c 2
 295.917 624.461 l 2
 278.873 624.461 278.767 637.573 295.68 653.729 c 0
 312.594 669.886 340.153 682.999 357.198 682.999 c 2
 460.806 682.999 l 2
 583.551 682.999 699.579 675.259 737.714 609.211 c 0
 751.507 585.321 754.722 553.885 744.603 513.407 c 0
 726.471 440.879 668.517 378.783 591.609 334.382 c 0
 515.748 290.584 437.198 273.429 373.929 273.429 c 0
 356.884 273.429 356.778 286.541 373.691 302.697 c 0
 390.605 318.854 418.165 331.966 435.21 331.966 c 0
 493.181 331.966 542.441 348.51 573.199 366.267 c 0
531.933 257.654 m 0
 559.492 209.923 582.21 148.175 608.889 101.97 c 0
 637.806 51.8867 663.127 37.1045 681.862 37.1045 c 0
 688.217 37.1045 700.269 37.4531 714.877 41.6465 c 0
 723.515 44.126 730.025 47.0508 735.928 50.459 c 0
 740.219 52.9365 744.495 55.8633 749.178 59.6709 c 0
 764.619 72.2285 774.825 86.6133 779.021 92.8037 c 0
 789.355 108.053 815.334 124.761 837.008 130.097 c 0
 858.682 135.433 867.885 127.387 857.55 112.138 c 0
 842.956 90.6035 824.106 69.6357 799.56 49.6738 c 0
 785.979 38.6299 770.615 27.9707 754.338 18.5732 c 0
 730.666 4.90625 705.786 -5.58203 683.176 -12.0732 c 0
 660.468 -18.5908 639.739 -21.4336 620.581 -21.4336 c 0
 585.678 -21.4336 556.808 -4.18848 523.858 52.8779 c 0
 496.299 100.61 473.58 162.358 446.902 208.563 c 0
 417.985 258.646 392.663 273.429 373.929 273.429 c 0
 356.884 273.429 356.777 286.541 373.691 302.697 c 0
 390.604 318.854 418.165 331.966 435.21 331.966 c 0
 470.113 331.966 498.983 314.722 531.933 257.654 c 0
EndSplineSet
Fore
506 296 m 1
 566 226 609 37 682 37 c 0
 739 37 766 74 779 93 c 0
 791 111 827 132 849 132 c 0
 857 132 862 129 862 123 c 0
 862 101 750 -21 621 -21 c 0
 531 -21 503 113 447 209 c 0
 418 259 393 273 374 273 c 0
 365 273 361 277 361 282 c 0
 361 302 411 332 435 332 c 0
 563 332 664 408 664 516 c 0
 664 603 570 624 400 624 c 2
 367 624 l 1
 349 458 304 249 207 23 c 0
 199 3 158 -21 134 -21 c 0
 126 -21 122 -18 122 -13 c 0
 122 -1 254 261 282 624 c 1
 128 618 113 558 107 533 c 0
 102 514 60 486 33 486 c 0
 25 486 20 489 20 494 c 0
 20 505 35 542 62 571 c 0
 87 599 180 683 357 683 c 2
 461 683 l 2
 574 683 751 683 751 557 c 0
 751 444 639 340 506 296 c 1
EndSplineSet
EndChar
StartChar: S
Encoding: 83 83 20
Width: 621
Flags: HMW
Back
564.42 540.119 m 2
 569.778 561.554 568.354 583.411 559.283 599.123 c 0
 554.874 606.759 548.697 612.958 541.084 617.196 c 0
 523.563 626.948 483.438 646.061 424.861 646.061 c 0
 384.182 646.061 354.014 635.273 340.273 628.826 c 0
 338.966 628.212 340.818 629.153 337.194 627.329 c 0
 333.922 625.682 341.964 629.954 334.339 625.842 c 0
 334.302 625.821 363.111 642.504 331.676 624.355 c 0
 321.552 618.511 315.684 612.83 312.785 609.979 c 0
 291.313 588.849 284.582 562.533 283.4 557.805 c 0
 276.446 529.987 280.621 505.537 292.847 484.363 c 0
 305.481 462.481 333.049 432.087 404.578 402.986 c 0
 470.235 376.274 539.845 343.151 571.03 289.14 c 0
 586.529 262.296 592.464 230.134 582.601 190.682 c 0
 568.534 134.416 524.123 80.2871 450.882 38.002 c 0
 374.276 -6.22559 293.372 -21.4326 229.845 -21.4336 c 0
 200.318 -21.4336 100.082 -17.709 37.5986 66.9893 c 0
 35.5791 69.7266 33.7236 72.5654 32.0322 75.4961 c 0
 9.50684 114.51 21.1855 157.301 29.9932 178.579 c 0
 36.5479 194.413 43.5859 205.246 49.0479 212.318 c 0
 59.4941 225.84 73.249 238.275 92.8438 249.588 c 1
 133.136 266.423 127.287 265.679 142.555 267.659 c 0
 144.872 267.96 151.426 268.381 153.455 268.381 c 0
 170.5 268.381 170.605 255.269 153.692 239.112 c 0
 136.778 222.956 109.218 209.844 92.1738 209.844 c 0
 91.5742 209.844 91.8975 209.87 91.6885 209.843 c 0
 91.6875 209.843 111.381 217.756 111.254 217.703 c 1
 111.252 217.702 126.04 229.383 124.24 227.053 c 0
 122.41 224.684 118.739 218.993 114.477 208.694 c 0
 106.218 188.745 99.4912 155.02 117.062 124.588 c 0
 118.499 122.1 120.072 119.693 121.778 117.381 c 0
 160.887 64.3682 223.112 37.1045 291.126 37.1045 c 0
 359.707 37.1045 408.432 56.0078 432.473 69.8877 c 0
 455.434 83.1445 484.796 109.033 496.388 155.399 c 0
 504.572 188.138 499.882 216.004 486 240.048 c 0
 458.074 288.414 392.65 320.671 328.098 346.933 c 0
 250.766 378.395 221.481 411.604 207.816 435.272 c 0
 194.001 459.2 188.502 487.779 197.188 522.522 c 0
 207.089 562.131 231.651 590.936 249.277 608.279 c 0
 266.745 625.468 289.254 642.378 313.266 656.24 c 0
 321.125 660.778 320.656 660.401 322.517 661.404 c 0
 330.142 665.518 329.954 665.314 331.818 666.254 c 0
 339.183 669.962 339.264 669.905 341.123 670.778 c 0
 394.133 695.654 445.045 704.599 486.143 704.599 c 0
 537.355 704.599 582.283 693.083 620.02 672.078 c 0
 630.847 666.051 638.752 657.846 644.313 648.215 c 0
 655.756 628.396 657.434 602.604 650.634 575.401 c 2
 647.826 564.175 l 2
 644.603 551.282 622.675 532.916 598.88 523.179 c 0
 575.085 513.441 558.39 516.001 561.613 528.894 c 2
 564.42 540.119 l 2
EndSplineSet
Fore
19 126 m 0
 19 215 103 268 153 268 c 0
 162 268 166 265 166 260 c 0
 166 246 141 226 118 216 c 1
 112 203 106 184 106 167 c 0
 106 104 187 37 291 37 c 0
 419 37 500 97 500 187 c 0
 500 262 425 307 328 347 c 0
 235 385 193 433 193 490 c 0
 193 561 251 626 332 666 c 2
 341 671 l 2
 394 696 445 705 486 705 c 0
 527 705 619 692 644 648 c 0
 651 636 655 622 655 606 c 0
 655 596 653 586 651 575 c 2
 648 564 l 2
 643 546 601 517 574 517 c 0
 565 517 560 521 562 529 c 2
 564 540 l 2
 566 548 568 557 568 565 c 0
 568 594 554 610 541 617 c 0
 524 627 483 646 425 646 c 0
 390 646 358 637 334 626 c 0
 300 607 280 566 280 532 c 0
 280 488 308 442 405 403 c 0
 465 378 587 330 587 228 c 0
 587 98 412 -21 230 -21 c 0
 111 -21 19 50 19 126 c 0
EndSplineSet
EndChar
StartChar: T
Encoding: 84 84 21
Width: 560
Flags: HMW
Back
292.59 148.653 m 2
 404.859 597.73 l 2
 408.108 610.727 432.312 630.818 458.887 642.576 c 0
 485.461 654.334 504.392 653.329 501.142 640.332 c 2
 388.873 191.255 l 2
 371.314 121.025 346.349 50.8564 314.251 -18.2207 c 0
 307.548 -32.6465 281.072 -52.4326 255.152 -62.3857 c 0
 229.233 -72.3398 213.638 -68.7109 220.341 -54.2852 c 0
 251.225 12.1797 275.488 80.252 292.59 148.653 c 2
797.523 647.6 m 0
 792.656 644.79 770.287 632.173 743.326 625.791 c 0
 724.278 621.283 706.104 619.348 661.431 619.348 c 2
 217.504 619.348 l 2
 213.381 619.348 202.797 619.146 190.858 616.536 c 0
 184.572 615.162 176.327 612.743 170.757 609.527 c 0
 161.903 604.416 154.369 594.565 153.998 594.108 c 0
 132.637 567.838 132.135 541.089 131.997 536.124 c 0
 131.676 524.492 109.688 504.411 82.918 491.302 c 0
 56.1484 478.192 34.6826 476.992 35.0039 488.625 c 0
 35.3838 502.354 39.2012 535.453 70.2031 573.581 c 0
 88.0859 595.575 116.295 620.419 152.426 641.278 c 0
 185.994 660.659 217.548 671.831 243.417 677.485 c 0
 260.376 681.192 276.006 682.849 290.828 682.849 c 2
 734.755 682.849 l 2
 751.358 682.849 779.479 682.881 793.381 686.171 c 0
 796.204 686.839 791.342 686.365 779.192 679.351 c 1
 779.199 679.354 756.008 658.073 757.479 663.957 c 0
 760.729 676.954 784.933 697.045 811.506 708.803 c 0
 838.08 720.562 857.011 719.557 853.762 706.56 c 0
 848.016 683.571 824.607 663.236 797.523 647.6 c 0
EndSplineSet
Fore
35 488 m 0
 35 581 178 683 291 683 c 2
 735 683 l 2
 745 683 760 683 772 684 c 1
 791 700 821 717 842 717 c 0
 850 717 854 714 854 709 c 0
 854 685 803 640 743 626 c 0
 724 621 706 619 661 619 c 2
 496 619 l 1
 389 191 l 2
 371 121 346 51 314 -18 c 0
 304 -40 255 -68 231 -68 c 0
 223 -68 219 -65 219 -60 c 0
 219 -49 259 13 293 149 c 2
 405 598 l 2
 406 604 413 611 422 619 c 1
 218 619 l 2
 143 619 133 558 132 536 c 0
 132 519 79 481 47 481 c 0
 39 481 35 483 35 488 c 0
EndSplineSet
EndChar
StartChar: U
Encoding: 85 85 22
Width: 641
Flags: HMW
Back
225.461 23.0215 m 0
 198.028 7.18359 142.914 -21.4326 88.8994 -21.4326 c 0
 44.4277 -21.4326 18.5615 -0.920898 4.04492 24.2207 c 0
 -15.6279 58.292 -19.9248 111.683 -5.32715 170.071 c 0
 33.4531 325.192 176.225 558.394 144.221 613.823 c 0
 139.733 621.595 132.538 624.461 123.643 624.461 c 0
 111.957 624.461 101.93 622.552 95.7656 620.93 c 0
 87.5869 618.777 81.2012 616.058 75.585 612.814 c 0
 73.8203 611.796 72.0273 610.668 70.0713 609.311 c 0
 48.2559 594.18 22.4072 586.495 12.373 592.158 c 0
 2.33887 597.821 11.8994 614.698 33.7148 629.829 c 0
 41.2334 635.045 49.1123 640.046 57.1748 644.7 c 0
 82.1172 659.101 108.034 669.576 130.889 675.591 c 0
 150.582 680.773 168.45 682.998 184.924 682.998 c 0
 211.064 682.998 223.287 673.243 229.251 662.915 c 0
 268.233 595.399 121.207 366.636 80.8857 205.354 c 0
 67.6816 152.537 71.2852 104.123 89.0752 73.3125 c 0
 104.049 47.3789 125.671 37.1045 150.181 37.1045 c 0
 167.873 37.1045 185.592 42.5176 207.051 54.9072 c 0
 357.757 141.916 575.271 464.78 618.098 636.089 c 0
 621.32 648.98 643.248 667.347 667.043 677.085 c 0
 690.838 686.823 707.534 684.263 704.311 671.371 c 0
 657.486 484.071 428.692 140.355 225.461 23.0215 c 0
557.742 199.268 m 0
 545.632 150.825 538.442 102.429 536.304 54.8809 c 0
 536.078 49.8643 537.191 45.2891 539.333 41.5811 c 0
 544.656 32.3623 554.094 31.0469 556.796 31.1768 c 0
 557.541 31.2119 553.723 30.9521 546.386 27.251 c 1
 563.205 35.7363 l 2
 587.168 47.8271 607.862 48.9414 609.397 38.2246 c 0
 610.934 27.5068 592.731 8.99707 568.769 -3.09375 c 2
 551.947 -11.5801 l 2
 529.26 -23.0264 511.034 -26.6973 498.88 -27.2783 c 0
 492.357 -27.5908 466.125 -27.9873 454.303 -7.50977 c 0
 450.78 -1.41016 448.937 5.94043 449.324 14.5703 c 0
 451.529 63.6045 458.942 113.641 471.528 163.985 c 0
 511.12 322.352 560.253 480.62 618.678 637.947 c 0
 623.73 651.553 646.884 669.667 670.357 678.379 c 0
 693.832 687.091 708.783 683.119 703.73 669.513 c 0
 645.809 513.54 597.05 356.498 557.742 199.268 c 0
EndSplineSet
Fore
554 31 m 1
 559 33 580 46 597 46 c 0
 603 46 609 44 609 37 c 0
 609 26 592 9 569 -3 c 2
 552 -12 l 2
 526 -24 507 -27 496 -27 c 0
 468 -27 449 -11 449 12 c 0
 449 74 474 182 507 298 c 1
 329 53 173 -21 89 -21 c 0
 7 -21 -14 48 -14 103 c 0
 -14 242 149 497 149 592 c 0
 149 616 139 624 124 624 c 0
 70 624 59 590 21 590 c 0
 15 590 8 592 8 599 c 0
 8 623 104 683 185 683 c 0
 219 683 236 667 236 634 c 0
 236 530 73 279 73 144 c 0
 73 80 102 37 150 37 c 0
 262 37 490 329 584 541 c 2
 619 638 l 2
 625 656 666 683 692 683 c 0
 700 683 705 680 705 674 c 0
 705 659 692 621 668 571 c 0
 652 523 537 185 537 60 c 0
 537 48 537 34 554 31 c 1
EndSplineSet
EndChar
StartChar: V
Encoding: 86 86 23
Width: 631
Flags: HMW
Back
160.124 555.936 m 0
 131.835 604.934 92.9658 629.393 45.999 629.393 c 0
 29.6035 629.393 27.2725 641.432 40.7939 656.265 c 0
 54.3164 671.099 78.5967 683.137 94.9922 683.137 c 0
 165.101 683.137 207.863 645.866 234.869 599.089 c 0
 318.452 454.314 287.748 154.007 272.196 43.4131 c 1
 246.25 22.8955 225.635 7.89062 213.613 0 c 1
 189.402 -27.7305 l 1
 189.407 -26.2129 189.723 -24.5352 190.375 -22.707 c 1
 186.821 -32.666 263.593 376.717 160.124 555.936 c 0
620.359 475.357 m 0
 622.703 481.798 624.513 487.688 625.941 493.404 c 0
 628.505 503.657 627.488 508.85 627.462 509.702 c 0
 626.654 535.649 611.292 570.269 573.41 584.057 c 0
 563.137 587.797 551.591 589.842 538.972 589.842 c 0
 528.271 589.843 525.982 610.675 533.864 636.342 c 0
 541.746 662.01 556.828 682.842 567.529 682.842 c 0
 581.892 682.842 595.078 680.523 606.949 676.202 c 0
 642.635 663.213 673.703 628.081 675.563 568.291 c 0
 676.042 552.923 674.722 531.988 668.229 506.017 c 0
 664.601 491.506 660.069 476.946 654.913 462.779 c 0
 568.776 226.123 258.784 -9.60059 206.391 -43.9883 c 0
 193.713 -52.3096 186.658 -39.3564 190.646 -15.0752 c 0
 194.632 9.20703 208.157 35.667 220.836 43.9883 c 0
 333.189 117.731 569.354 335.226 620.359 475.357 c 0
EndSplineSet
Fore
278 86 m 1
 472 240 628 429 628 508 c 0
 628 544 599 590 539 590 c 0
 533 590 529 597 529 609 c 0
 529 640 552 683 568 683 c 0
 632 683 676 635 676 563 c 0
 676 553 676 520 655 463 c 0
 563 212 213 -47 199 -47 c 0
 193 -47 189 -39 189 -28 c 0
 189 -20 214 114 214 267 c 0
 214 434 181 629 46 629 c 0
 37 629 32 633 32 639 c 0
 32 657 70 683 95 683 c 0
 252 683 291 495 291 297 c 0
 291 218 284 141 278 86 c 1
EndSplineSet
EndChar
StartChar: W
Encoding: 87 87 24
Width: 1015
Flags: HMW
Back
147.765 565.522 m 0
 122.887 608.613 88.2754 629.393 45.999 629.393 c 0
 29.6035 629.393 27.2725 641.432 40.7939 656.265 c 0
 54.3164 671.098 78.5967 683.137 94.9922 683.137 c 0
 159.433 683.137 198.51 650.248 222.511 608.677 c 0
 287.866 495.475 269.379 270.501 248.145 127.967 c 1
 306.642 201.175 360.164 274.865 408.917 348.374 c 0
 468.566 438.312 522.467 530.081 570.385 622.982 c 1
 565.694 635.941 l 2
 562.142 645.646 576.264 662.627 597.216 673.846 c 0
 618.169 685.064 638.058 686.293 641.61 676.588 c 0
 680.851 569.402 710.849 457.457 731.349 341.663 c 0
 747.713 249.231 757.988 154.546 762.132 58.0986 c 1
 739.278 30.915 721.072 10.5996 710.965 0 c 2
 686.757 -27.7256 l 1
 684.446 85.3545 673.728 196.188 654.648 303.949 c 0
 638.342 396.052 615.969 485.711 587.664 572.45 c 1
 537.065 475.136 480.981 380.143 419.848 287.967 c 0
 347.812 179.353 265.815 70.2246 173.236 -37.1768 c 0
 159.946 -52.5947 149.059 -48.4521 148.932 -27.9297 c 2
 148.931 -27.5762 l 1
 148.795 -27.7314 l 1
 148.795 -27.1133 148.85 -26.4678 148.956 -25.7979 c 0
 149.211 -16.8672 151.355 -6.52246 154.766 3.53418 c 0
 172.562 95.792 231.93 419.741 147.765 565.522 c 0
1002.24 464.41 m 0
 1006.1 475.004 1009.07 484.618 1011.26 493.404 c 0
 1014.23 505.289 1011.84 494.341 1013.02 502.244 c 0
 1016.94 528.463 1010.92 572.252 973.337 585.933 c 0
 966.404 588.456 958.547 589.842 949.749 589.842 c 0
 939.048 589.842 936.76 610.674 944.642 636.342 c 0
 952.523 662.01 967.605 682.841 978.307 682.841 c 0
 988.8 682.841 998.322 681.19 1006.88 678.077 c 0
 1046.56 663.633 1071.07 613.294 1059.38 535.117 c 0
 1057.98 525.772 1056.05 516.018 1053.55 506.017 c 0
 1049.02 487.887 1043.3 469.696 1036.8 451.833 c 0
 958.369 236.357 733.481 -13.8994 709.472 -39.0791 c 0
 696.206 -52.9902 686.109 -46.7725 686.934 -25.2012 c 0
 687.758 -3.62988 699.192 25.168 712.458 39.0781 c 0
 781.961 111.967 951.257 324.331 1002.24 464.41 c 0
EndSplineSet
Fore
978 683 m 0
 1037 683 1062 631 1062 573 c 0
 1062 379 794 49 709 -39 c 0
 705 -44 700 -46 697 -46 c 0
 691 -46 687 -40 687 -28 c 0
 682 213 639 415 588 572 c 1
 453 313 299 108 173 -37 c 0
 168 -43 163 -46 159 -46 c 0
 153 -46 149 -40 149 -28 c 0
 149 -18 192 159 192 336 c 0
 192 474 163 629 46 629 c 0
 37 629 32 633 32 639 c 0
 32 657 70 683 95 683 c 0
 199 683 268 599 268 368 c 0
 268 283 258 196 248 128 c 1
 371 282 479 446 570 623 c 1
 566 636 l 1
 565 637 565 638 565 639 c 0
 565 657 603 683 628 683 c 0
 635 683 640 681 642 677 c 0
 698 523 747 327 760 93 c 1
 871 223 1014 434 1014 517 c 0
 1014 553 995 590 950 590 c 0
 943 590 940 597 940 609 c 0
 940 640 963 683 978 683 c 0
EndSplineSet
EndChar
StartChar: X
Encoding: 88 88 25
Width: 732
Flags: HMW
Back
637.692 26.2852 m 0
 620.075 16.1143 602.872 10.0137 590.26 6.72852 c 0
 568.132 0.964844 546.348 0.166992 533.838 0.166992 c 0
 512.503 0.166992 484.742 6.07129 466.471 37.7158 c 0
 451.351 63.9043 446.234 99.4375 442.629 132.679 c 2
 401.992 507.259 l 2
 398.449 539.916 393.093 573.707 380.014 596.358 c 0
 377.576 600.58 365.612 624.461 336.396 624.461 c 0
 315.938 624.461 305.899 621.715 305.755 621.677 c 0
 304.751 621.415 307.165 622.068 312.233 624.994 c 0
 319.395 629.129 323.658 633.019 324.249 633.975 c 1
 323.043 632.022 321.702 628.891 320.704 624.899 c 0
 317.481 612.007 295.554 593.641 271.759 583.903 c 0
 247.964 574.165 231.269 576.726 234.491 589.617 c 0
 237.056 599.875 241.025 607.177 243.958 611.923 c 0
 257.916 634.514 282.45 650.313 293.824 656.88 c 0
 311.44 667.051 328.644 673.151 341.255 676.437 c 0
 363.384 682.2 385.168 682.999 397.678 682.999 c 0
 419.013 682.999 446.773 677.095 465.044 645.449 c 0
 480.165 619.262 485.28 583.729 488.887 550.487 c 2
 529.523 175.906 l 2
 533.066 143.249 538.423 109.459 551.501 86.8076 c 0
 553.938 82.5859 565.904 58.7041 595.119 58.7041 c 0
 611.505 58.7041 621.694 60.4297 625.761 61.4883 c 0
 628.232 62.1318 625.152 61.5596 619.282 58.1709 c 1
 619.282 58.1709 606.324 47.665 607.267 49.1914 c 0
 608.473 51.1426 609.813 54.2754 610.812 58.2666 c 0
 614.034 71.1582 635.962 89.5244 659.757 99.2627 c 0
 683.552 109 700.247 106.44 697.024 93.5488 c 0
 694.46 83.291 690.49 75.9893 687.558 71.2422 c 0
 673.601 48.6523 649.065 32.8516 637.692 26.2852 c 0
61.3975 24.1084 m 0
 52.2139 40.0137 50.5801 61.5059 56.4102 84.8291 c 0
 60.0938 99.5625 67.5117 108.158 72.3145 114.39 c 0
 165.836 235.738 665.729 467.89 732.055 553.95 c 0
 734.847 557.573 736.329 560.338 737.008 563.054 c 0
 741.357 580.455 739.939 598.299 733.204 609.965 c 0
 727.338 620.125 718.352 624.461 710.845 624.461 c 0
 693.801 624.461 693.694 637.574 710.608 653.73 c 0
 727.521 669.887 755.082 682.999 772.126 682.999 c 0
 779.017 682.999 805.097 681.81 818.234 659.057 c 0
 827.417 643.152 829.052 621.66 823.221 598.336 c 0
 820.978 589.361 815.342 579.189 807.316 568.776 c 0
 714.627 448.506 213.509 214.766 147.576 129.215 c 0
 144.784 125.592 143.303 122.827 142.624 120.112 c 0
 138.273 102.71 139.691 84.8672 146.428 73.2002 c 0
 152.294 63.041 161.28 58.7041 168.787 58.7041 c 0
 185.832 58.7051 185.938 45.5918 169.024 29.4355 c 0
 152.111 13.2793 124.551 0.166992 107.507 0.166992 c 0
 100.616 0.166992 74.5342 1.35547 61.3975 24.1084 c 0
EndSplineSet
Fore
423 310 m 1
 148 151 140 137 140 100 c 0
 140 75 153 59 169 59 c 0
 177 59 182 55 182 50 c 0
 182 30 132 0 108 0 c 0
 86 0 53 12 53 59 c 0
 53 117 95 163 419 351 c 1
 402 507 l 2
 398 548 389 624 336 624 c 2
 320 624 l 1
 308 598 267 578 247 578 c 0
 239 578 234 581 234 587 c 0
 234 606 280 683 398 683 c 0
 471 683 482 611 489 550 c 2
 505 401 l 1
 735 535 739 550 739 583 c 0
 739 608 727 624 711 624 c 0
 702 624 698 628 698 633 c 0
 698 653 747 683 772 683 c 0
 794 683 827 671 827 625 c 0
 827 572 796 529 510 360 c 1
 530 176 l 2
 534 135 543 59 595 59 c 2
 611 59 l 1
 624 86 664 105 685 105 c 0
 693 105 697 102 697 97 c 0
 697 77 651 0 534 0 c 0
 461 0 449 72 443 133 c 2
 423 310 l 1
EndSplineSet
EndChar
StartChar: Y
Encoding: 89 89 26
Width: 683
Flags: HMW
Back
273.323 542.89 m 0
 240.488 599.763 196.003 629.393 142.892 629.393 c 0
 140.406 629.393 138.602 629.104 137.592 628.884 c 1
 136.868 628.209 135.702 627.021 134.294 625.221 c 0
 122.765 610.487 98.918 597.134 81.0654 595.414 c 0
 63.2129 593.694 58.0811 604.256 69.6113 618.989 c 0
 77.1709 628.648 86.9619 638.55 99.333 647.965 c 0
 106.704 653.574 113.1 657.66 119.325 661.254 c 0
 128.896 666.779 140.217 672.243 153.07 676.441 c 0
 167.685 681.215 180.653 683.138 191.885 683.138 c 0
 269.36 683.137 317.036 639.793 348.068 586.044 c 0
 428.273 447.122 423.34 182.837 415.462 65.1484 c 1
 388.065 38.915 360.93 15.1162 335.104 -5.67773 c 1
 341.49 66.5811 366.327 381.799 273.323 542.89 c 0
140.525 -50.1904 m 0
 153.931 -55.0693 168.917 -57.6982 184.989 -57.6982 c 0
 260.52 -57.6982 576.188 202.784 669 457.782 c 0
 674.694 473.43 679.905 488.915 683.274 504.099 c 0
 693.496 550.163 668.08 586.041 633.719 598.547 c 0
 624.022 602.076 613.109 604.012 601.139 604.012 c 0
 590.444 604.012 586.802 621.708 593.008 643.512 c 0
 599.214 665.315 612.93 683.012 623.624 683.012 c 0
 637.641 683.012 650.508 680.753 662.104 676.533 c 0
 713.489 657.831 743.882 602.398 723.51 509.663 c 0
 718.778 488.123 711.39 466.403 703.66 445.168 c 0
 592.238 139.038 250.902 -136.698 162.504 -136.698 c 0
 144.364 -136.698 127.45 -133.748 112.141 -128.177 c 0
 73.1123 -113.973 40.043 -80.584 31.4883 -26.4658 c 0
 28.9307 -10.2793 36.6719 14.7139 48.7695 29.3223 c 0
 60.8662 43.9316 72.7607 42.6514 75.3193 26.4658 c 0
 79.4443 0.367188 96.9805 -34.3418 140.525 -50.1904 c 0
EndSplineSet
Fore
418 102 m 1
 635 311 686 488 686 524 c 0
 686 572 648 604 601 604 c 0
 594 604 590 612 590 624 c 0
 590 651 610 683 624 683 c 0
 687 683 730 638 730 564 c 0
 730 522 716 480 704 445 c 0
 592 139 251 -137 163 -137 c 0
 58 -137 31 -47 31 -20 c 0
 31 9 51 39 65 39 c 0
 70 39 74 35 75 26 c 0
 83 -20 124 -58 185 -58 c 0
 212 -58 270 -24 338 31 c 1
 340 65 343 112 343 167 c 0
 343 373 303 629 143 629 c 2
 138 629 l 2
 137 629 111 595 77 595 c 0
 68 595 63 599 63 605 c 0
 63 623 127 683 192 683 c 0
 374 683 420 439 420 190 c 0
 420 158 419 128 418 102 c 1
EndSplineSet
EndChar
StartChar: Z
Encoding: 90 90 27
Width: 740
Flags: HMW
Back
725.623 623.082 m 0
 699.603 608.06 679.772 601.82 670.193 599.088 c 0
 656.384 595.148 642.771 592.857 629.286 592.857 c 0
 541.966 592.857 471.799 619.348 391.194 619.348 c 0
 369.481 619.348 351.454 615.688 339.717 612.225 c 0
 329.203 609.121 323.281 606.124 320.79 604.686 c 0
 313.825 600.665 307.587 593.253 303.921 588.215 c 0
 298.671 580.998 292.404 570.095 288.701 555.285 c 0
 285.452 542.288 261.248 522.197 234.674 510.438 c 0
 208.1 498.681 189.169 499.687 192.419 512.683 c 0
 198.009 535.042 208.703 552.25 216.721 563.271 c 0
 243.533 600.125 283.262 625.354 302.459 636.437 c 0
 329.971 652.32 356.962 663.179 380.69 670.182 c 0
 399.613 675.767 429.831 682.849 464.52 682.849 c 0
 551.84 682.849 622.007 656.359 702.61 656.358 c 0
 706.843 656.358 710.448 656.849 712.81 657.521 c 0
 713.097 657.604 710.746 656.827 707.292 654.833 c 1
 707.307 654.842 703.241 652.161 703.242 652.162 c 0
 724.056 669.678 754.614 683.418 771.452 682.831 c 0
 788.291 682.244 785.065 667.551 764.253 650.035 c 0
 751.337 639.165 737.802 630.113 725.623 623.082 c 0
435.096 369.143 m 0
 525.427 455.403 611.562 546.538 692.719 641.878 c 0
 706.995 658.649 736.962 676.392 759.61 681.48 c 0
 782.258 686.57 789.053 677.089 774.776 660.318 c 0
 690.789 561.653 601.101 466.677 506.071 375.931 c 0
 380.393 255.915 249.805 140.435 114.706 29.9209 c 0
 93.3301 12.4346 62.8994 -0.795898 46.7812 0.389648 c 0
 30.6631 1.57422 34.9307 16.7275 56.3066 34.2139 c 0
 186.481 140.699 312.922 252.475 435.096 369.143 c 0
592.607 32.0303 m 0
 565.734 16.5146 545.339 9.9873 535.417 7.1123 c 0
 525.418 4.21484 509.228 0.316406 490.951 0.316406 c 0
 368.214 0.316406 261.903 26.8066 143.887 26.8066 c 0
 131.315 26.8066 119.933 24.7832 112.919 22.9756 c 0
 106.757 21.3877 99.4795 18.9014 93.3652 15.4453 c 0
 66.9473 0.512695 41.9854 -4.16016 37.6475 5.01465 c 0
 33.3086 14.1904 51.2285 33.7559 77.6475 48.6885 c 0
 106.449 64.9688 135.37 76.2734 159.887 82.5918 c 0
 181.066 88.0488 199.855 90.3076 217.211 90.3076 c 0
 339.948 90.3076 446.26 63.8174 564.275 63.8174 c 0
 572.111 63.8174 576.978 65.2422 577.291 65.333 c 0
 578.809 65.7725 576.163 64.8701 574.276 63.7812 c 1
 574.39 63.8467 573.088 63.0449 573.094 63.0488 c 0
 587.875 73.2715 615.225 111.681 626.595 157.159 c 0
 629.844 170.155 654.048 190.246 680.622 202.005 c 0
 707.196 213.763 726.127 212.757 722.878 199.761 c 0
 712.741 159.217 685.191 94.832 613.557 45.291 c 0
 605.611 39.7959 599.174 35.8213 592.607 32.0303 c 0
546.407 338.198 m 0
 544.456 341.578 546.685 338.617 544.289 340.231 c 0
 533.474 347.521 502.976 349.036 454.276 349.036 c 2
 312.099 349.036 l 2
 297.196 349.036 292.407 359.564 301.408 372.536 c 0
 310.41 385.509 329.811 396.036 344.713 396.036 c 2
 486.89 396.035 l 2
 502.323 396.036 573.722 398.385 598.328 381.802 c 0
 601.769 379.482 604.735 376.654 606.806 373.069 c 0
 610.215 367.164 610.301 360.667 608.763 354.516 c 0
 605.737 342.416 589.367 328.801 572.223 324.126 c 0
 555.077 319.45 543.618 325.477 546.643 337.576 c 0
 546.725 337.903 546.787 337.541 546.407 338.198 c 0
EndSplineSet
Fore
782 676 m 0
 782 658 620 488 527 396 c 1
 577 394 610 386 610 362 c 0
 610 338 579 323 561 323 c 0
 540 323 550 336 544 340 c 0
 535 346 513 348 478 349 c 1
 382 259 285 172 184 87 c 1
 195 89 206 90 217 90 c 0
 340 90 446 64 564 64 c 0
 570 64 573 64 576 65 c 1
 591 77 616 114 627 157 c 0
 631 175 681 210 711 210 c 0
 719 210 723 208 723 202 c 0
 723 181 684 85 593 32 c 0
 539 1 501 0 491 0 c 0
 368 0 262 27 144 27 c 0
 92 27 82 0 49 0 c 0
 43 0 37 2 37 8 c 0
 37 15 43 23 56 34 c 0
 203 154 320 260 414 349 c 1
 312 349 l 2
 302 349 297 354 297 360 c 0
 297 375 322 396 345 396 c 2
 463 396 l 1
 547 479 609 546 652 595 c 1
 644 594 637 593 629 593 c 0
 542 593 472 619 391 619 c 0
 338 619 301 606 289 555 c 0
 284 538 235 502 204 502 c 0
 196 502 192 505 192 510 c 0
 192 561 313 683 465 683 c 0
 552 683 622 656 703 656 c 0
 705 656 707 657 709 657 c 1
 728 671 753 683 770 683 c 0
 779 683 782 680 782 676 c 0
EndSplineSet
EndChar
